<?xml version="1.0" standalone="no"?>
<!DOCTYPE svg PUBLIC "-//W3C//DTD SVG 20010904//EN"
 "http://www.w3.org/TR/2001/REC-SVG-20010904/DTD/svg10.dtd">
<svg version="1.0" xmlns="http://www.w3.org/2000/svg"
 width="1340.000000pt" height="1340.000000pt" viewBox="0 0 1340.000000 1340.000000"
 preserveAspectRatio="xMidYMid meet">
<metadata>
Created by potrace 1.11, written by Peter Selinger 2001-2013
</metadata>
<g transform="translate(0.000000,1340.000000) scale(0.100000,-0.100000)"
fill="#000000" stroke="none">
<path d="M0 6700 l0 -6700 5301 0 5301 0 -5 21 c-3 12 -1 29 5 39 9 13 7 27
-5 58 -11 27 -14 49 -8 69 4 15 9 82 10 148 1 66 4 139 7 163 10 73 -2 77
-251 78 -132 1 -221 -2 -239 -9 -22 -8 -31 -8 -34 1 -6 19 -28 14 -45 -11
l-16 -22 0 23 c-1 12 -4 22 -8 23 -5 0 -18 2 -30 3 -31 4 -29 -6 12 -50 19
-20 35 -41 35 -45 0 -5 9 -9 21 -9 11 0 37 -16 57 -35 20 -19 40 -35 44 -35 4
0 5 -8 1 -17 -3 -10 -3 -15 2 -11 4 4 14 0 21 -10 7 -9 18 -17 26 -17 7 0 14
-12 16 -27 2 -16 -1 -28 -7 -28 -6 0 -11 9 -11 19 0 11 -9 22 -19 26 -11 3
-36 24 -55 45 -20 22 -38 40 -41 40 -8 0 -46 33 -69 59 -46 52 -99 102 -104
97 -10 -11 -92 48 -92 66 0 5 8 7 17 4 32 -10 78 -18 93 -16 16 1 385 -1 592
-3 70 -1 131 -6 136 -12 5 -6 5 -67 1 -140 -4 -72 -9 -210 -12 -307 l-5 -178
1379 0 1379 0 0 1981 0 1981 -40 -32 -40 -32 0 -129 c0 -83 -4 -129 -10 -129
-7 0 -8 -13 -5 -34 4 -21 1 -44 -7 -62 -17 -34 -13 -64 8 -64 10 0 14 -12 14
-40 0 -22 -4 -40 -10 -40 -5 0 -10 -16 -10 -35 0 -39 -33 -84 -47 -62 -4 7
-17 17 -28 23 -21 12 -34 74 -15 74 6 0 3 11 -7 26 -25 39 -28 91 -5 98 11 4
27 3 37 0 15 -6 16 -5 4 15 -8 11 -19 21 -26 21 -11 0 -20 60 -14 94 1 4 2 33
3 65 1 31 5 59 10 62 5 3 4 18 -2 33 -5 15 -10 42 -10 61 0 31 -21 65 -39 65
-12 0 -33 52 -24 60 9 8 209 -4 242 -15 l21 -6 0 555 c0 589 1 580 -45 518
-16 -23 -19 -41 -18 -112 1 -47 -2 -102 -8 -123 -7 -28 -7 -47 3 -73 9 -27 10
-41 0 -66 -10 -26 -9 -36 3 -55 9 -13 12 -23 8 -23 -5 0 -13 -21 -19 -47 -9
-37 -8 -54 2 -80 13 -29 12 -33 -1 -33 -17 0 -20 -16 -5 -25 13 -8 13 -95 0
-115 -5 -8 -5 -17 -1 -20 8 -4 16 -84 12 -117 0 -7 -19 -22 -40 -33 -22 -10
-41 -24 -43 -30 -1 -5 -16 1 -31 16 -24 22 -31 24 -60 15 -45 -15 -285 -25
-300 -13 -7 5 -49 7 -97 5 -185 -11 -326 -11 -348 0 -17 8 -31 8 -52 0 -19 -7
-45 -8 -81 -1 -29 5 -68 7 -87 3 -34 -6 -973 -6 -1122 1 -141 6 -196 11 -209
18 -8 5 -10 25 -5 66 8 70 -6 105 -19 45 -4 -22 -10 -61 -13 -87 -7 -51 -23
-65 -57 -46 -12 6 -63 13 -114 16 -52 3 -96 9 -99 13 -8 14 -47 11 -70 -6 -12
-8 -23 -13 -25 -10 -15 15 -161 21 -227 10 l-32 -6 5 73 c4 40 10 100 15 133
5 33 12 98 15 145 9 119 10 120 51 71 45 -52 81 -71 154 -81 132 -19 290 47
432 180 33 31 81 135 97 209 6 30 16 59 20 65 11 14 32 113 40 191 l6 60 170
0 c94 0 325 -4 515 -9 190 -5 401 -10 470 -12 69 -1 190 -5 270 -8 80 -3 306
-8 504 -11 197 -4 369 -10 383 -16 13 -5 31 -9 39 -9 12 0 14 550 14 4140 l0
4140 -6700 0 -6700 0 0 -6700z m8843 6584 c-1 -32 -4 -106 -7 -164 -3 -58 -8
-157 -10 -220 -2 -77 -7 -115 -15 -115 -17 0 -51 57 -42 70 5 5 9 39 10 75 1
36 4 90 7 120 2 30 6 104 9 163 5 103 16 140 40 133 6 -1 9 -29 8 -62z m-3206
-254 c-14 -11 -28 -20 -32 -20 -10 0 38 39 49 40 5 0 -3 -9 -17 -20z m3181
-265 c3 -3 -2 -7 -11 -11 -16 -6 -66 23 -67 39 0 7 68 -18 78 -28z m347 -94
c7 -12 -12 -24 -25 -16 -11 7 -4 25 10 25 5 0 11 -4 15 -9z m-4980 -28 c-3
-16 -11 -29 -16 -31 -5 -2 -9 -10 -9 -18 0 -15 -16 -19 -24 -5 -3 4 3 16 14
26 11 10 17 22 14 26 -3 5 0 9 6 9 6 0 8 5 5 10 -3 6 -1 10 5 10 8 0 10 -9 5
-27z m5135 -113 c0 -5 -4 -10 -9 -10 -6 0 -13 5 -16 10 -3 6 1 10 9 10 9 0 16
-4 16 -10z m91 -36 c14 -17 1 -18 -36 -4 -14 5 -24 14 -21 19 8 12 42 3 57
-15z m55 -29 c11 -27 -1 -39 -19 -21 -17 17 -15 36 4 36 5 0 12 -7 15 -15z
m55 -135 c19 -16 30 -30 24 -30 -11 1 -65 46 -65 55 0 9 7 5 41 -25z m450
-195 c31 -5 36 -9 32 -25 -6 -23 -23 -27 -23 -6 0 10 -12 14 -42 14 -56 -1
-96 11 -77 23 13 8 25 8 110 -6z m-131 -10 c0 -9 -6 -12 -15 -9 -8 4 -15 10
-15 15 0 5 7 9 15 9 8 0 15 -7 15 -15z m230 5 c0 -5 -4 -10 -10 -10 -5 0 -10
5 -10 10 0 6 5 10 10 10 6 0 10 -4 10 -10z m90 0 c0 -5 -10 -10 -22 -10 -19 0
-20 2 -8 10 19 13 30 13 30 0z m45 0 c3 -6 -4 -10 -17 -10 -18 0 -20 2 -8 10
19 12 18 12 25 0z m119 4 c9 -3 16 -15 16 -25 0 -15 -5 -18 -25 -14 -14 3 -36
7 -50 10 -39 8 -32 35 9 35 19 0 41 -3 50 -6z m73 -10 c-3 -3 -12 -4 -19 -1
-8 3 -5 6 6 6 11 1 17 -2 13 -5z m201 -14 c-16 -5 -40 -5 -55 0 -23 7 -18 8
27 8 45 0 50 -1 28 -8z m156 4 c25 -9 19 -24 -9 -24 -14 0 -25 5 -25 11 0 6
-6 9 -13 6 -8 -3 -20 -1 -28 4 -16 10 49 13 75 3z m116 -3 c0 -9 -24 -21 -41
-21 -5 0 -9 7 -9 15 0 9 9 15 25 15 14 0 25 -4 25 -9z m222 -38 c1 -27 1 -57
0 -68 -10 -115 -11 -120 -29 -590 -3 -71 -6 -186 -7 -255 -1 -113 -3 -125 -19
-128 -20 -4 -51 32 -52 57 0 8 -6 16 -14 19 -10 3 -12 0 -8 -11 6 -16 2 -17
-85 -32 -20 -3 -58 -1 -85 6 -26 6 -64 11 -83 11 -19 0 -42 6 -50 13 -8 7 -28
15 -45 17 -19 2 -34 11 -42 28 l-13 25 0 -25 c-1 -38 -23 -60 -60 -60 -27 0
-32 3 -27 20 7 26 -4 32 -28 14 -15 -11 -16 -17 -7 -26 7 -7 12 -18 12 -26 0
-23 -27 4 -57 57 -14 25 -33 57 -42 71 -10 14 -23 41 -31 60 -8 19 -16 37 -19
40 -29 26 -72 93 -63 99 6 4 7 12 3 20 -5 7 -11 11 -13 9 -8 -5 -78 91 -78
107 0 8 -4 15 -9 15 -8 0 -51 72 -51 85 0 2 7 2 15 -1 19 -8 19 15 1 39 -15
20 -32 22 -39 5 -3 -9 -10 -6 -21 9 -9 12 -22 28 -29 35 -6 7 -25 39 -42 71
-16 32 -38 66 -47 74 -10 9 -18 26 -18 39 0 12 -4 24 -9 26 -5 2 -11 12 -13
23 -1 11 -9 25 -17 31 -18 14 -7 44 15 44 10 0 14 -5 10 -15 -3 -8 0 -15 5
-15 6 0 9 -9 6 -20 -3 -11 -1 -18 4 -14 5 3 9 0 9 -7 0 -19 30 -48 45 -43 18
7 30 -16 14 -27 -8 -5 -9 -9 -4 -9 6 0 16 5 23 12 9 9 20 3 49 -27 30 -31 37
-46 38 -80 0 -33 7 -49 33 -77 18 -19 39 -46 47 -61 11 -22 11 -28 -2 -39 -14
-11 -15 -10 -9 10 6 17 3 22 -9 22 -19 0 -13 -34 11 -61 8 -9 11 -18 8 -22 -4
-3 8 -20 25 -38 22 -21 30 -37 26 -50 -4 -10 -2 -19 4 -19 5 0 11 12 13 28 2
15 9 27 17 27 8 0 16 6 19 13 2 7 -6 12 -23 12 -22 0 -25 3 -16 14 17 21 61
29 77 15 10 -8 13 -22 9 -38 -5 -24 -3 -26 36 -29 33 -2 40 0 36 12 -4 9 -2
18 3 21 6 4 10 -3 10 -14 0 -18 7 -21 43 -22 23 -1 32 -4 20 -6 -28 -5 -29
-19 -3 -33 14 -7 20 -7 20 0 0 5 7 10 15 10 8 0 15 7 15 15 0 10 11 15 35 15
19 0 35 -3 35 -7 -1 -14 -27 -43 -39 -43 -6 0 -11 -7 -11 -15 0 -10 10 -15 30
-15 20 0 30 5 30 15 0 19 29 65 41 65 5 0 9 -29 9 -65 l0 -65 40 0 c29 0 40
-4 40 -15 0 -8 5 -15 10 -15 6 0 10 18 10 40 l0 40 -40 0 -40 0 0 40 c0 22 -4
40 -10 40 -5 0 -10 18 -10 40 0 39 1 40 34 40 34 0 35 1 39 43 2 23 4 2 5 -46
2 -86 3 -88 37 -122 40 -40 51 -43 58 -15 7 28 45 26 56 -2 6 -17 4 -25 -8
-32 -41 -23 -43 -66 -3 -66 26 0 30 -4 40 -51 15 -65 15 -69 -3 -69 -8 0 -15
-5 -15 -11 0 -6 14 -9 32 -7 37 3 45 22 47 100 1 31 -6 59 -20 82 l-21 36 22
0 c21 0 22 3 16 40 -4 25 -2 40 4 40 5 0 10 -10 11 -22 1 -19 2 -18 10 7 6 17
8 59 5 95 -3 36 -1 83 4 105 5 22 14 119 21 215 6 96 13 182 17 190 3 8 4 18
4 23 -1 4 5 7 13 7 8 0 15 5 15 10 0 6 7 10 15 10 11 0 15 -13 17 -47z m94 9
c-22 -5 -30 3 -21 18 5 8 11 7 22 -2 15 -12 14 -13 -1 -16z m-1266 -37 c0 -9
-6 -12 -15 -9 -8 4 -15 10 -15 15 0 5 7 9 15 9 8 0 15 -7 15 -15z m760 -206
c0 -11 -4 -17 -10 -14 -5 3 -10 13 -10 21 0 8 5 14 10 14 6 0 10 -9 10 -21z
m-200 -49 c0 -5 -4 -10 -10 -10 -5 0 -10 5 -10 10 0 6 5 10 10 10 6 0 10 -4
10 -10z m30 -100 c0 -48 -8 -70 -26 -70 -28 0 -42 23 -31 47 6 13 14 23 19 23
5 0 8 8 7 18 -3 38 0 45 16 32 9 -7 15 -29 15 -50z m290 -59 c0 -5 -9 -7 -20
-4 -11 3 -20 7 -20 9 0 2 9 4 20 4 11 0 20 -4 20 -9z m-574 -47 c7 -29 -12
-49 -32 -33 -9 7 -9 16 0 34 14 32 24 31 32 -1z m114 5 c0 -5 -4 -9 -10 -9 -5
0 -10 7 -10 16 0 8 5 12 10 9 6 -3 10 -10 10 -16z m125 11 c3 -5 12 -7 20 -3
8 3 15 0 15 -6 0 -10 -14 -15 -33 -12 -15 3 -81 -23 -100 -38 -9 -8 -20 -12
-23 -9 -7 8 25 38 42 38 8 0 14 5 14 10 0 6 10 15 23 20 29 12 35 12 42 0z
m-195 -25 c-7 -8 -16 -15 -21 -15 -5 0 -9 7 -9 15 0 9 9 15 21 15 18 0 19 -2
9 -15z m617 -117 c-3 -8 -6 -5 -6 6 -1 11 2 17 5 13 3 -3 4 -12 1 -19z m310
-10 c-3 -8 -6 -5 -6 6 -1 11 2 17 5 13 3 -3 4 -12 1 -19z m103 -82 c0 -3 -4
-8 -10 -11 -5 -3 -10 -1 -10 4 0 6 5 11 10 11 6 0 10 -2 10 -4z m-54 -41 c13
-13 12 -19 -6 -56 -21 -41 -21 -69 1 -69 6 0 13 9 16 20 6 21 23 28 23 9 0 -5
5 -7 10 -4 6 3 10 -5 10 -19 0 -29 -17 -44 -22 -19 -3 14 -8 10 -21 -16 -9
-18 -14 -37 -12 -42 10 -15 45 -5 51 14 5 15 12 18 36 13 20 -4 27 -2 22 6 -5
8 6 9 41 5 26 -4 56 -7 66 -7 12 0 19 -7 19 -18 0 -17 12 -18 136 -20 104 -2
139 -6 150 -17 11 -11 12 -19 5 -32 -9 -16 -10 -16 -11 -1 0 22 -82 35 -124
20 -18 -7 -32 -8 -36 -2 -7 11 -114 4 -118 -8 -1 -5 -25 -7 -53 -4 -40 4 -52
1 -63 -13 -12 -16 -15 -16 -62 6 -27 13 -52 25 -56 27 -3 2 -9 -6 -13 -17 -8
-25 -50 -28 -59 -5 -8 21 3 56 15 49 15 -10 32 47 20 67 -6 10 -11 40 -11 68
0 30 -4 50 -11 50 -8 0 -8 5 1 15 16 19 37 19 56 0z m674 -245 c0 -5 -4 -10
-10 -10 -5 0 -10 5 -10 10 0 6 5 10 10 10 6 0 10 -4 10 -10z m-750 -4 c0 -11
-19 -15 -25 -6 -3 5 1 10 9 10 9 0 16 -2 16 -4z m-638 -99 c8 6 60 7 148 2 74
-4 221 -12 325 -18 105 -6 262 -13 350 -16 88 -3 187 -8 220 -12 33 -3 96 -6
141 -7 52 -1 87 -6 97 -14 13 -11 23 -11 51 -2 22 7 63 9 108 5 125 -10 133
-13 134 -37 0 -13 4 -32 8 -43 5 -14 5 -16 -1 -7 -6 8 -22 11 -39 9 -16 -2
-35 1 -43 7 -12 9 -13 8 -6 -4 6 -12 5 -13 -6 -2 -22 20 -122 15 -151 -7 -24
-20 -25 -20 -41 0 -10 11 -28 18 -44 18 -24 -2 -25 -2 -5 -6 12 -3 22 -12 22
-22 0 -9 4 -21 10 -27 11 -11 -9 -114 -22 -114 -5 0 -8 -8 -8 -17 1 -16 2 -16
13 -2 7 8 20 18 29 22 9 3 18 18 20 33 3 26 3 26 26 8 12 -11 29 -37 37 -59
13 -36 14 -37 15 -12 0 15 5 27 10 27 6 0 10 28 10 64 0 36 5 68 10 71 6 4 10
-15 10 -50 0 -52 2 -56 20 -50 15 5 20 2 20 -13 0 -17 7 -20 37 -19 20 1 38
-4 41 -11 2 -7 21 -12 43 -12 33 0 39 -3 39 -21 0 -19 -5 -21 -45 -17 -27 2
-45 -1 -45 -8 0 -5 -7 -19 -15 -30 -14 -18 -16 -18 -29 -1 -18 24 -26 21 -26
-8 0 -29 36 -43 67 -27 14 8 30 6 62 -9 52 -23 70 -24 77 -4 9 23 34 18 34 -6
0 -12 8 -28 18 -35 16 -12 15 -15 -10 -37 -16 -13 -28 -31 -28 -39 0 -9 -9
-18 -20 -21 -29 -7 -26 -37 4 -37 25 0 36 16 36 56 0 27 15 32 24 9 7 -20 33
-19 45 3 9 15 10 15 11 -5 0 -13 4 -23 9 -23 6 0 11 -15 13 -32 2 -25 8 -34
26 -36 20 -3 22 1 22 37 0 32 3 39 15 35 8 -4 15 -15 15 -25 0 -12 7 -19 20
-19 24 0 26 -17 4 -41 -9 -10 -19 -40 -22 -66 -3 -29 -12 -54 -24 -64 -22 -20
-25 -54 -3 -45 9 3 15 0 15 -9 0 -8 3 -15 8 -15 17 0 34 46 39 111 3 38 10 72
14 75 5 3 9 -2 9 -10 0 -9 4 -16 9 -16 5 0 13 -10 17 -22 4 -13 14 -29 23 -36
12 -10 13 -15 4 -18 -30 -13 -4 -140 26 -131 9 2 22 6 29 8 8 2 21 -6 29 -18
15 -23 15 -23 -21 -23 -20 0 -36 -4 -36 -10 0 -5 16 -10 35 -10 23 0 44 -8 60
-22 26 -24 59 -104 49 -119 -9 -16 -31 -10 -47 14 l-15 22 -21 -22 c-23 -25
-32 -27 -47 -15 -5 4 -43 4 -84 1 -41 -3 -65 -6 -53 -7 37 -3 37 -22 0 -22
-22 0 -37 6 -41 15 -3 8 -12 15 -20 15 -10 0 -13 6 -9 16 4 12 2 15 -8 12 -8
-3 -13 -13 -11 -22 2 -13 -2 -15 -23 -10 -14 4 -31 1 -40 -6 -11 -10 -18 -9
-30 4 -20 20 -20 20 -53 -3 -22 -17 -35 -19 -70 -12 -25 5 -49 17 -57 29 -18
25 -62 37 -81 21 -19 -15 -18 -29 2 -29 8 0 13 -4 9 -9 -3 -6 -16 -4 -32 4
-19 10 -32 11 -46 3 -11 -6 -41 -8 -66 -5 -25 3 -53 1 -63 -4 -15 -8 -67 -1
-127 17 -16 5 -22 4 -18 -3 11 -17 -536 -5 -564 12 -4 3 -10 1 -14 -5 -7 -12
-58 -14 -69 -3 -4 4 -52 8 -106 8 -97 0 -128 8 -101 25 12 7 12 20 1 83 -7 41
-10 79 -7 84 3 5 0 27 -8 49 -7 22 -18 94 -24 159 -11 117 -24 180 -42 199 -5
6 -9 20 -9 32 0 12 -7 27 -15 34 -8 7 -20 30 -27 51 -6 22 -15 39 -20 39 -4 0
-8 6 -8 14 0 7 -7 19 -16 27 -9 7 -25 32 -36 56 -11 24 -24 43 -29 43 -5 0 -9
7 -9 16 0 9 -6 28 -14 42 -7 15 -28 56 -46 91 l-32 63 30 -18 c22 -12 35 -15
44 -7z m1658 -97 c-20 -15 -26 -16 -28 -5 -2 7 -13 16 -25 18 -12 2 1 5 28 5
l50 2 -25 -20z m1121 -165 c-1 -83 -5 -193 -8 -245 -2 -52 -7 -192 -10 -310
-2 -118 -5 -248 -6 -287 -3 -96 -25 -99 -56 -9 -14 42 -7 196 11 230 5 10 12
61 14 114 3 52 7 98 9 103 3 4 1 19 -5 34 -6 17 -7 41 0 68 5 23 9 60 10 82 1
105 4 194 5 230 1 22 2 64 3 93 2 44 5 53 19 50 15 -3 17 -19 14 -153z m-1315
88 c-11 -11 -19 6 -11 24 8 17 8 17 12 0 3 -10 2 -21 -1 -24z m-72 -28 c4 -10
-1 -15 -16 -15 -17 0 -18 2 -8 15 7 8 14 15 15 15 2 0 5 -7 9 -15z m236 0 c0
-8 -4 -15 -10 -15 -5 0 -7 7 -4 15 4 8 8 15 10 15 2 0 4 -7 4 -15z m-60 -55
c0 -48 -10 -51 -29 -9 -12 27 -12 33 0 40 24 15 29 10 29 -31z m0 -124 c0 -3
-4 -8 -10 -11 -5 -3 -10 -1 -10 4 0 6 5 11 10 11 6 0 10 -2 10 -4z m200 -6 c0
-5 -9 -10 -20 -10 -11 0 -20 5 -20 10 0 6 9 10 20 10 11 0 20 -4 20 -10z
m-1628 -55 c3 -13 1 -22 -3 -19 -9 5 -13 44 -5 44 2 0 6 -11 8 -25z m35 -97
c-3 -7 -5 -2 -5 12 0 14 2 19 5 13 2 -7 2 -19 0 -25z m-8407 -4 c0 -7 -48 -54
-56 -54 -13 0 -1 30 19 43 24 17 37 21 37 11z m10082 -6 c-9 -9 -15 -9 -24 0
-9 9 -7 12 12 12 19 0 21 -3 12 -12z m-9882 -53 c-7 -9 -15 -13 -19 -10 -3 3
1 10 9 15 21 14 24 12 10 -5z m10080 -86 c0 -5 -4 -9 -10 -9 -5 0 -10 7 -10
16 0 8 5 12 10 9 6 -3 10 -10 10 -16z m-10260 -9 c0 -11 -7 -20 -15 -20 -18 0
-19 6 -2 25 16 19 17 18 17 -5z m-558 -262 c0 -13 1 -30 0 -38 -1 -8 -4 -150
-7 -315 -3 -165 -7 -343 -9 -395 -1 -52 0 -135 3 -184 7 -100 0 -110 -53 -83
-28 14 -56 22 -112 31 -11 1 -27 7 -35 12 -8 5 -25 9 -38 9 -32 0 -37 19 -12
44 12 12 21 30 21 40 0 11 6 21 13 24 9 3 9 8 -2 21 -22 26 -9 27 24 0 17 -13
24 -24 18 -24 -7 0 -13 -7 -13 -15 0 -17 28 -20 50 -5 13 9 13 12 -2 21 -28
16 -21 79 9 79 8 0 11 5 8 10 -4 6 -1 18 6 26 9 11 8 18 -5 33 -16 17 -15 20
1 52 10 19 20 36 23 39 8 7 5 72 -4 98 -8 25 18 67 35 56 19 -11 8 19 -12 35
-20 16 -21 19 -6 47 16 28 16 28 17 5 0 -13 3 -21 7 -17 4 3 6 45 4 91 -2 61
1 85 10 85 8 0 10 16 7 53 -3 28 -3 45 0 37 3 -8 11 7 18 34 11 41 10 55 -1
83 -14 32 -13 33 11 33 18 0 24 -6 26 -22z m10748 -158 c-19 -13 -30 -13 -30
0 0 6 10 10 23 10 18 0 19 -2 7 -10z m-1521 -56 c11 -3 12 -32 7 -152 -3 -81
-8 -235 -11 -342 -7 -257 -15 -372 -27 -387 -7 -9 -7 -13 1 -13 14 0 15 -138
1 -174 -15 -42 -80 -27 -80 18 0 9 -4 16 -8 16 -11 0 -62 103 -62 124 0 9 6
16 13 16 6 0 4 5 -6 11 -17 10 -17 21 0 82 3 11 11 16 19 13 18 -7 18 20 0 31
-9 5 -19 50 -30 126 -9 65 -20 126 -25 135 -11 23 -25 232 -14 232 4 0 8 46 8
103 0 125 3 147 21 147 8 0 17 7 21 15 4 13 19 15 82 10 42 -4 82 -9 90 -11z
m451 -14 c168 -6 368 -15 445 -21 76 -6 175 -10 220 -10 105 1 262 -5 355 -13
41 -3 166 -9 278 -11 217 -5 252 -9 252 -31 0 -15 23 -22 90 -27 l45 -4 -49
-1 c-30 -1 -57 -9 -68 -19 -17 -15 -19 -15 -32 2 -8 11 -20 16 -30 12 -20 -8
-21 -33 -1 -41 24 -9 17 -26 -11 -26 -17 0 -28 6 -31 20 -5 17 -13 20 -57 19
-50 -1 -50 -1 -13 -9 20 -4 40 -10 43 -13 7 -7 -39 -27 -62 -27 -8 0 -14 -7
-14 -15 0 -8 -4 -15 -10 -15 -5 0 -10 5 -10 10 0 6 -6 5 -14 -2 -17 -16 -11
-28 15 -28 10 0 19 -4 19 -10 0 -5 10 -14 21 -21 26 -13 42 3 36 38 -5 25 9
34 38 22 12 -4 14 -8 6 -8 -11 -1 -10 -5 5 -15 19 -15 19 -15 0 -29 -19 -14
-19 -15 2 -26 11 -6 28 -11 36 -11 13 0 16 -14 16 -80 l0 -80 -39 0 c-27 0
-41 -5 -45 -16 -4 -9 -4 -19 -1 -22 3 -3 5 0 5 6 0 7 16 12 40 12 33 0 40 -3
40 -20 0 -17 7 -20 40 -20 31 0 40 4 41 18 0 14 2 13 11 -4 8 -18 6 -26 -10
-42 -18 -18 -19 -24 -9 -46 7 -14 19 -26 28 -26 18 0 29 -71 29 -181 l0 -59
-52 0 c-32 0 -48 -4 -40 -9 7 -4 35 -6 62 -3 46 4 51 2 85 -33 28 -30 35 -46
35 -76 0 -32 3 -39 20 -39 11 0 20 5 20 10 0 6 -4 10 -10 10 -15 0 -12 50 3
51 10 0 10 2 0 6 -7 2 -13 9 -13 14 0 12 37 12 45 -1 14 -22 35 -10 35 20 0
23 -5 30 -19 30 -11 0 -23 5 -26 10 -3 6 -22 10 -41 10 -26 0 -34 4 -34 19 0
10 -3 46 -6 80 -6 52 -5 61 10 61 12 0 16 -10 16 -40 0 -33 3 -40 19 -40 16 0
20 -8 23 -37 3 -33 7 -38 31 -41 26 -3 27 -1 27 39 0 23 3 39 7 36 10 -11 11
-240 0 -254 -5 -7 -17 -13 -26 -12 -12 0 -12 2 4 10 19 8 4 8 -110 -3 -16 -2
-33 -7 -37 -12 -10 -14 -169 -24 -196 -13 -27 12 -39 3 -22 -18 10 -12 9 -16
-5 -21 -12 -5 -23 0 -34 14 -14 18 -21 20 -56 12 -68 -16 -176 -27 -181 -19
-8 14 -89 20 -132 11 -33 -8 -50 -7 -72 5 -23 11 -34 12 -50 3 -15 -8 -76 -10
-190 -7 -97 3 -172 1 -178 -5 -5 -5 -19 -4 -36 3 -21 10 -34 10 -58 1 -23 -8
-35 -9 -45 -1 -9 8 -27 8 -63 -1 -30 -7 -69 -9 -97 -5 -27 4 -114 10 -195 12
-84 2 -148 8 -148 14 0 5 -5 9 -11 9 -5 0 -8 -4 -5 -8 6 -10 -194 -7 -244 3
-19 4 -40 12 -47 17 -21 17 -26 95 -13 206 7 59 15 184 17 277 2 94 8 181 13
195 7 16 7 43 2 72 -5 26 -7 50 -4 53 11 11 4 216 -8 230 -22 27 -5 46 37 40
21 -3 175 -9 343 -15z m-8910 3 c0 -10 -20 -40 -20 -31 0 3 -3 13 -6 22 -4 11
-1 16 10 16 9 0 16 -3 16 -7z m-130 -93 c0 -11 -2 -20 -4 -20 -2 0 -6 9 -9 20
-3 11 -1 20 4 20 5 0 9 -9 9 -20z m10913 10 c9 0 17 -4 17 -9 0 -11 -66 -22
-86 -14 -23 9 5 36 30 29 12 -3 29 -6 39 -6z m-10967 -67 c-11 -11 -17 4 -9
23 7 18 8 18 11 1 2 -10 1 -21 -2 -24z m-226 -73 c0 -5 -4 -10 -10 -10 -5 0
-10 5 -10 10 0 6 5 10 10 10 6 0 10 -4 10 -10z m100 -30 c10 -18 8 -20 -20
-20 -28 0 -30 2 -20 20 6 11 15 20 20 20 5 0 14 -9 20 -20z m280 -30 c0 -55
-16 -70 -18 -17 -1 32 6 67 14 67 2 0 4 -22 4 -50z m10604 -55 c8 -22 -4 -45
-24 -45 -10 0 -20 7 -24 15 -8 22 4 45 24 45 10 0 20 -7 24 -15z m-11547 -17
c-3 -8 -6 -5 -6 6 -1 11 2 17 5 13 3 -3 4 -12 1 -19z m587 14 c12 -19 -7 -52
-30 -52 -31 0 -39 17 -18 41 18 20 39 25 48 11z m288 -8 c-12 -8 -27 -12 -32
-9 -17 10 -1 25 28 25 l26 0 -22 -16z m-432 -29 c0 -8 7 -15 15 -15 8 0 15 -7
15 -15 0 -8 -6 -15 -14 -15 -16 0 -27 -58 -15 -80 7 -12 10 -11 15 8 3 12 13
22 20 22 8 0 14 7 14 15 0 8 7 15 16 15 17 0 16 -21 -2 -107 -4 -23 -2 -37 10
-48 15 -15 16 -14 16 9 0 14 5 28 10 31 6 3 10 24 10 46 0 39 0 39 38 39 33 0
40 -4 57 -37 15 -27 17 -37 7 -41 -7 -2 -12 -20 -12 -43 0 -23 -5 -39 -12 -39
-6 0 -9 -2 -7 -5 3 -2 15 -2 27 2 18 4 22 13 22 44 0 22 4 39 9 39 5 0 14 14
21 30 15 37 23 38 38 5 15 -33 15 -35 -4 -35 -12 0 -15 -5 -9 -22 4 -13 8 -37
9 -55 2 -44 11 -49 51 -27 24 13 33 23 29 34 -23 57 -26 71 -14 85 9 11 7 16
-10 25 -14 8 -19 17 -15 30 3 10 1 21 -5 25 -5 3 -10 19 -10 36 0 16 -5 29
-12 29 -6 0 -9 3 -5 6 3 3 15 3 27 -1 16 -5 19 -10 10 -20 -13 -16 -5 -35 15
-35 7 0 16 -11 19 -25 7 -28 30 -32 70 -14 23 11 42 49 37 75 -1 7 6 14 14 18
13 4 15 1 10 -14 -4 -11 -2 -20 3 -20 12 0 21 -80 10 -86 -12 -8 -10 -34 3
-32 14 4 21 -80 7 -88 -6 -4 -15 0 -20 7 -7 11 -8 9 -4 -5 4 -10 -1 -30 -9
-43 -9 -13 -13 -28 -10 -33 3 -6 1 -10 -5 -10 -6 0 -8 -5 -5 -10 3 -6 -1 -13
-9 -16 -9 -3 -16 -12 -16 -19 0 -7 -21 -23 -46 -35 -43 -21 -50 -22 -100 -10
-39 10 -63 10 -88 3 -18 -6 -40 -7 -47 -3 -8 4 -79 8 -159 8 -202 0 -185 -2
-168 25 24 37 31 77 13 77 -12 0 -15 14 -15 66 0 41 4 63 10 59 6 -3 10 -15
10 -26 0 -10 4 -19 9 -19 16 0 36 33 33 55 -4 29 12 40 28 20 9 -10 9 -15 1
-15 -6 0 -11 -4 -11 -10 0 -15 46 -12 59 4 20 24 -14 79 -55 88 -14 3 -7 10
29 28 53 27 62 50 20 50 -27 1 -27 1 -9 15 25 19 36 19 36 0z m11040 -26 c0
-11 28 -9 63 6 14 6 17 2 17 -21 0 -25 -6 -31 -40 -42 -64 -20 -70 -17 -70 28
0 29 4 40 15 40 8 0 15 -5 15 -11z m-11466 -22 c25 -19 10 -47 -25 -47 -24 0
-29 4 -29 24 0 21 10 32 31 35 3 1 13 -5 23 -12z m871 -17 c-3 -5 -10 -10 -16
-10 -5 0 -9 5 -9 10 0 6 7 10 16 10 8 0 12 -4 9 -10z m-545 -34 c0 -11 -19
-15 -25 -6 -3 5 1 10 9 10 9 0 16 -2 16 -4z m11300 -86 c0 -5 -4 -10 -10 -10
-5 0 -10 5 -10 10 0 6 5 10 10 10 6 0 10 -4 10 -10z m8 -87 c16 -16 16 -16 -1
-10 -10 4 -34 7 -53 7 -19 0 -34 5 -34 10 0 17 70 11 88 -7z m82 -28 c0 -10
-10 -15 -27 -15 l-28 0 25 14 c14 8 26 14 28 15 1 1 2 -6 2 -14z m-150 -155
c0 -22 -4 -40 -10 -40 -5 0 -10 18 -10 40 0 22 5 40 10 40 6 0 10 -18 10 -40z
m-11399 -86 c7 -4 40 -6 75 -5 35 1 82 -4 106 -10 57 -17 89 -18 95 -3 7 20
324 16 403 -5 41 -11 79 -15 102 -11 40 7 68 -10 68 -43 0 -25 -27 -34 -78
-26 -26 4 -51 4 -55 -1 -5 -4 -3 -26 3 -49 10 -39 12 -41 48 -38 20 1 40 7 44
12 4 6 8 -2 8 -17 0 -17 -5 -28 -14 -28 -18 0 -27 -26 -20 -55 3 -13 0 -33 -6
-45 -10 -18 -9 -24 1 -31 10 -6 11 -9 2 -9 -7 0 -13 -4 -13 -10 0 -5 7 -10 15
-10 21 0 19 -10 -7 -37 l-22 -23 32 4 c18 2 32 2 32 -1 0 -2 -9 -21 -20 -43
-21 -42 -54 -70 -82 -70 -10 0 -18 -6 -18 -14 0 -28 12 -46 30 -46 23 0 35
-16 18 -24 -10 -3 -8 -8 4 -16 15 -9 15 -14 3 -45 -14 -32 -14 -34 7 -41 19
-6 20 -8 6 -18 -8 -6 -15 -13 -14 -16 2 -11 -39 -56 -57 -63 -10 -4 -17 -15
-15 -24 2 -12 -3 -17 -14 -15 -11 2 -18 -3 -18 -13 0 -8 -5 -15 -11 -15 -5 0
-7 -4 -4 -10 3 -5 -14 -32 -39 -58 -26 -27 -46 -57 -46 -66 0 -15 -13 -16
-137 -10 -144 7 -211 6 -224 -2 -4 -2 -10 0 -13 5 -3 5 -63 9 -133 9 -71 0
-166 3 -213 7 -47 4 -102 6 -123 6 -24 -1 -36 2 -32 9 7 11 9 11 -208 16 -103
2 -154 7 -165 16 -11 10 -16 10 -19 1 -3 -9 -10 -9 -29 -1 -19 9 -30 9 -45 0
-10 -7 -30 -12 -43 -12 -28 0 -33 19 -28 103 3 45 7 57 18 53 28 -11 44 5 44
45 0 21 5 39 10 39 6 0 10 -9 10 -20 0 -13 9 -22 25 -26 14 -3 25 -12 25 -20
0 -8 7 -14 15 -14 8 0 15 9 15 19 0 11 5 23 10 26 16 10 12 38 -5 32 -21 -9
-25 5 -11 32 12 21 14 22 27 7 8 -9 19 -22 25 -29 5 -7 14 -21 18 -32 8 -20 8
-20 16 1 5 12 6 40 3 62 -4 31 -10 42 -27 45 l-21 4 22 8 c12 4 24 17 26 29 3
17 5 15 12 -11 4 -18 11 -33 15 -33 11 0 20 27 20 57 0 25 -1 26 -61 20 -35
-3 -65 -11 -70 -18 -6 -11 -9 -10 -15 4 -3 9 -12 17 -19 17 -14 0 -27 38 -19
52 9 13 34 -12 34 -33 0 -13 7 -19 24 -19 30 0 36 9 40 57 3 26 9 39 21 41 18
4 18 8 -1 110 -4 20 -2 32 5 32 6 0 11 -11 11 -24 0 -14 4 -27 9 -30 4 -3 6
-28 3 -56 -4 -46 -3 -50 17 -50 18 0 21 6 21 38 0 21 7 47 15 58 8 10 15 29
15 42 0 14 6 22 17 22 14 0 15 2 4 13 -11 10 -14 10 -18 0 -10 -27 -23 -11
-23 27 l0 40 -48 0 c-42 0 -51 4 -62 25 -7 14 -21 25 -31 25 -9 0 -27 8 -39
18 -27 22 -18 52 16 52 25 0 32 -14 14 -25 -16 -10 -1 -25 18 -18 27 10 31 23
16 52 -11 20 -11 27 -1 30 6 2 16 10 20 17 10 18 65 17 97 -1 33 -19 38 -18
45 4 10 34 45 70 60 64 8 -3 13 -9 10 -13 -6 -10 14 -26 43 -33 15 -3 37 3 59
16 33 19 37 19 48 4 14 -19 41 -22 51 -6 3 6 0 15 -7 20 -9 6 -10 9 -2 9 6 0
19 -9 27 -21 20 -30 41 -19 41 21 0 28 5 35 25 40 32 8 146 4 161 -6z m869
-14 c0 -5 -5 -10 -11 -10 -5 0 -7 5 -4 10 3 6 8 10 11 10 2 0 4 -4 4 -10z
m-1434 -21 c3 -6 1 -16 -5 -22 -8 -8 -17 -5 -33 11 l-22 22 26 0 c15 0 30 -5
34 -11z m211 5 c-3 -3 -12 -4 -19 -1 -8 3 -5 6 6 6 11 1 17 -2 13 -5z m-442
-74 c5 -9 -15 -15 -37 -11 -5 0 -8 -3 -8 -9 0 -5 -4 -10 -10 -10 -5 0 -10 9
-10 20 0 15 7 20 29 20 17 0 33 -4 36 -10z m-70 -40 c3 -5 1 -10 -4 -10 -6 0
-11 5 -11 10 0 6 2 10 4 10 3 0 8 -4 11 -10z m1713 -30 c-14 -22 -24 -19 -15
5 4 8 11 15 17 15 6 0 6 -7 -2 -20z m10642 -6 c0 -2 -7 -4 -15 -4 -8 0 -15 4
-15 10 0 5 7 7 15 4 8 -4 15 -8 15 -10z m-2205 -50 c106 -1 475 -12 660 -19
72 -3 195 -7 275 -10 80 -2 208 -7 285 -10 77 -2 212 -7 300 -10 88 -3 187 -7
220 -10 33 -3 152 -8 265 -10 l205 -4 -3 -208 c-2 -114 -7 -266 -12 -338 -6
-71 -12 -214 -15 -317 -3 -102 -8 -194 -11 -202 -8 -20 -33 -20 -57 -1 -11 7
-25 11 -33 8 -7 -3 -33 3 -57 12 -35 13 -54 14 -103 6 -67 -10 -217 2 -222 19
-2 6 -10 7 -22 0 -10 -5 -32 -11 -50 -12 -17 -1 -34 -6 -36 -10 -10 -15 -24
-8 -24 12 0 13 -7 20 -20 20 -11 0 -17 -5 -15 -12 4 -10 -53 -13 -267 -12
-196 0 -277 -3 -288 -11 -15 -12 -40 -11 -212 13 -46 7 -86 6 -130 -2 -41 -7
-89 -8 -138 -3 -41 4 -138 8 -215 8 -113 1 -144 4 -165 17 -34 23 -101 18 -94
-6 3 -9 -1 -7 -8 6 -8 12 -17 20 -21 16 -15 -15 -18 51 -7 166 12 129 12 218
0 235 -18 25 -38 170 -43 321 -4 104 -11 161 -28 220 -13 43 -27 81 -31 82
-10 4 -11 46 -2 55 4 4 12 3 18 -1 6 -3 52 -7 101 -8z m-9905 -72 c0 -5 -9
-17 -20 -27 -19 -17 -21 -17 -40 0 -29 27 -25 35 20 35 22 0 40 -4 40 -8z
m12214 -21 c3 -5 -1 -12 -10 -15 -22 -9 -24 -8 -24 9 0 16 25 21 34 6z
m-12350 -26 c3 -9 0 -15 -9 -15 -8 0 -15 7 -15 15 0 8 4 15 9 15 5 0 11 -7 15
-15z m77 -25 c23 0 25 -18 4 -26 -10 -4 -13 -14 -9 -29 8 -34 -8 -57 -17 -25
-8 29 -10 112 -2 93 2 -7 13 -13 24 -13z m-74 -56 c-3 -3 -12 -4 -19 -1 -8 3
-5 6 6 6 11 1 17 -2 13 -5z m-147 -14 c0 -5 -2 -10 -4 -10 -3 0 -8 5 -11 10
-3 6 -1 10 4 10 6 0 11 -4 11 -10z m180 -55 c0 -8 -8 -15 -18 -15 -10 0 -23
-5 -30 -12 -9 -9 -12 -9 -12 0 0 7 5 12 10 12 6 0 10 7 10 15 0 8 9 15 20 15
11 0 20 -7 20 -15z m-30 -225 c0 -5 -2 -10 -4 -10 -3 0 -8 5 -11 10 -3 6 -1
10 4 10 6 0 11 -4 11 -10z m-300 -194 c0 -11 -19 -15 -25 -6 -3 5 1 10 9 10 9
0 16 -2 16 -4z m1850 -26 c0 -5 -6 -10 -14 -10 -8 0 -17 -7 -20 -16 -3 -8 -11
-12 -18 -8 -8 5 -4 13 11 26 26 20 41 23 41 8z m9 -67 c-5 -14 -15 -34 -23
-44 -12 -18 -14 -18 -20 -3 -5 12 -13 15 -34 10 -65 -16 -113 -22 -117 -15 -7
11 106 61 137 61 18 -1 29 6 33 19 5 16 10 18 20 9 10 -9 11 -18 4 -37z
m-1722 -129 c-3 -3 -12 -4 -19 -1 -8 3 -5 6 6 6 11 1 17 -2 13 -5z m905 -15
c16 -8 18 -18 14 -47 -6 -43 -13 -250 -21 -612 -6 -294 -14 -420 -24 -420 -17
0 -70 22 -70 28 4 30 -4 32 -128 30 -80 0 -139 4 -158 11 -19 8 -50 10 -85 6
-31 -4 -92 -2 -136 4 -43 6 -137 14 -209 17 -153 8 -202 10 -232 12 -13 1 -23
9 -23 17 0 8 -5 15 -11 15 -8 0 -8 5 1 15 7 8 9 22 6 31 -5 14 -7 14 -22 0
-18 -18 -69 -21 -79 -5 -4 6 -17 14 -28 18 -21 8 -21 8 3 22 14 7 45 16 70 20
l45 6 -42 2 -43 1 0 55 c0 48 -2 55 -20 55 -16 0 -20 7 -20 34 0 40 -18 96
-31 96 -6 0 -7 -27 -3 -65 6 -62 6 -65 -15 -65 -18 0 -21 6 -21 40 0 22 5 40
10 40 6 0 10 18 10 40 0 29 -4 40 -15 40 -8 0 -15 7 -15 15 0 8 7 15 15 15 9
0 18 -7 21 -15 4 -8 9 -15 13 -15 15 0 51 92 51 130 0 21 4 42 10 45 5 3 10 1
10 -4 0 -7 30 -11 80 -11 74 0 80 -2 80 -21 0 -32 19 -12 26 29 4 20 13 46 20
57 20 29 17 38 -11 31 -14 -4 -25 -3 -25 1 0 16 15 31 34 34 30 6 30 28 1 39
-20 8 -25 15 -20 30 5 14 2 20 -9 20 -9 0 -16 -4 -16 -8 0 -5 -17 -16 -38 -24
-32 -13 -40 -13 -51 -1 -11 12 -10 17 3 32 13 15 14 20 1 45 -13 25 -13 30 2
44 22 22 209 25 230 4 11 -11 16 -11 28 2 8 8 15 17 15 20 0 3 -7 6 -15 6 -8
0 -15 7 -15 15 0 12 4 13 19 6 10 -6 45 -14 77 -17 33 -4 62 -11 65 -17 4 -5
4 11 2 37 -5 44 -5 46 21 46 28 0 35 -17 11 -26 -8 -4 -15 -12 -15 -20 0 -16
36 -19 45 -4 3 5 12 7 19 4 7 -3 26 6 43 20 19 16 44 26 74 28 99 7 472 -3
491 -13z m-747 -9 c-3 -5 -10 -10 -16 -10 -5 0 -9 5 -9 10 0 6 7 10 16 10 8 0
12 -4 9 -10z m1300 -3 c126 -2 131 -3 159 -29 29 -28 46 -29 46 -2 0 8 7 14
15 14 8 0 15 -5 15 -11 0 -7 9 -9 23 -5 42 10 61 -14 58 -75 -2 -51 -5 -57
-52 -103 -31 -29 -47 -52 -41 -58 11 -11 49 3 82 32 l25 22 8 -82 c5 -46 17
-104 28 -131 22 -57 13 -62 -44 -29 -51 30 -145 43 -220 30 -56 -10 -67 -16
-112 -64 -40 -43 -55 -69 -75 -132 -23 -73 -25 -93 -24 -266 0 -104 -2 -188
-6 -188 -4 0 -13 7 -20 15 -7 9 -20 13 -27 10 -8 -2 -23 0 -33 5 -14 7 -25 7
-38 -1 -14 -9 -31 -9 -58 -3 -22 5 -67 6 -102 2 -36 -4 -74 -3 -89 3 l-25 9 6
238 c3 132 8 245 10 253 3 8 7 132 10 276 2 144 7 267 10 272 4 5 76 7 173 4
93 -2 227 -5 298 -6z m-1667 -70 c2 -11 -3 -17 -14 -17 -9 0 -23 -8 -30 -17
-13 -17 -13 -17 -14 0 0 9 5 17 10 17 6 0 10 9 10 21 0 25 33 22 38 -4z
m12719 -29 c-3 -7 -5 -2 -5 12 0 14 2 19 5 13 2 -7 2 -19 0 -25z m-12757 -61
c0 -12 -41 -13 -51 -1 -9 11 -8 14 5 14 9 0 16 5 16 11 0 6 7 4 15 -5 8 -8 15
-17 15 -19z m12720 23 c0 -5 -7 -10 -16 -10 -8 0 -12 5 -9 10 3 6 10 10 16 10
5 0 9 -4 9 -10z m-12810 -14 c0 -11 -19 -15 -25 -6 -3 5 1 10 9 10 9 0 16 -2
16 -4z m10630 -41 c0 -21 58 -25 620 -41 124 -4 236 -7 250 -7 14 0 113 -4
220 -9 107 -4 269 -11 360 -14 91 -3 208 -7 260 -10 52 -3 176 -7 275 -9 200
-5 268 -12 260 -26 -4 -5 -1 -9 4 -9 20 0 11 -28 -10 -33 -18 -5 -20 -13 -19
-64 1 -32 1 -129 0 -215 0 -132 -3 -158 -15 -158 -17 0 -20 -16 -6 -24 5 -4
11 0 14 6 3 7 5 -104 5 -247 -1 -180 -4 -262 -12 -267 -17 -11 -66 -10 -66 2
0 6 -8 5 -21 -2 -17 -11 -22 -10 -33 5 -14 18 -61 23 -71 8 -3 -6 -24 -3 -51
7 -42 16 -47 16 -75 -1 -17 -9 -38 -17 -48 -17 -9 0 -22 -5 -28 -11 -15 -15
-160 -14 -178 1 -12 10 -30 10 -78 3 -36 -6 -71 -7 -85 -2 -40 15 -208 11
-221 -5 -9 -11 -19 -12 -39 -5 -25 8 -209 21 -297 20 -249 -3 -582 0 -626 5
-49 5 -59 3 -76 -16 l-20 -21 4 53 c2 29 12 96 20 148 35 203 13 529 -44 660
-55 126 -119 194 -243 256 l-55 28 29 7 c17 5 37 4 48 -2 22 -12 41 -2 34 18
-3 8 -1 11 4 8 6 -3 10 -12 10 -20z m-10557 -24 c20 -3 -6 -19 -39 -24 -34 -6
-72 12 -58 26 5 4 66 3 97 -2z m74 -52 c0 -22 -2 -36 -6 -31 -3 5 -15 11 -26
13 -27 6 -25 33 3 37 12 2 22 8 22 13 0 5 2 9 4 9 2 0 3 -18 3 -41z m9280 15
c-3 -3 -12 -4 -19 -1 -8 3 -5 6 6 6 11 1 17 -2 13 -5z m-9357 -34 c0 -5 -5
-10 -11 -10 -5 0 -7 5 -4 10 3 6 8 10 11 10 2 0 4 -4 4 -10z m145 -10 c4 -6
-7 -10 -25 -10 -18 0 -29 4 -25 10 3 6 15 10 25 10 10 0 22 -4 25 -10z m22
-42 c-3 -7 -5 -2 -5 12 0 14 2 19 5 13 2 -7 2 -19 0 -25z m7669 -44 c-28 -24
-58 -29 -56 -9 0 9 53 33 75 34 6 0 -3 -11 -19 -25z m-7916 -44 c0 -22 -8 -25
-30 -10 -13 9 -13 11 0 20 22 15 30 12 30 -10z m2214 -35 c3 -8 1 -15 -4 -15
-6 0 -10 7 -10 15 0 8 2 15 4 15 2 0 6 -7 10 -15z m2211 -84 c-14 -13 -86 -31
-80 -20 3 5 20 13 38 18 43 13 53 13 42 2z m2638 -68 c-7 -2 -19 -2 -25 0 -7
3 -2 5 12 5 14 0 19 -2 13 -5z m397 -33 c-11 -20 -30 -28 -30 -12 0 11 22 32
32 32 5 0 4 -9 -2 -20z m-1545 -30 c-211 -16 -340 -22 -333 -15 8 9 209 22
333 22 l90 0 -90 -7z m-5905 -225 c0 -5 -5 -3 -10 5 -5 8 -10 20 -10 25 0 6 5
3 10 -5 5 -8 10 -19 10 -25z m295 -225 c-11 -5 -15 -9 -8 -9 6 -1 24 -6 40
-12 26 -10 27 -12 8 -19 -17 -8 -16 -9 8 -9 16 -1 26 3 22 8 -3 6 3 14 12 20
17 10 17 10 0 11 -10 0 -15 5 -12 10 4 7 48 9 123 5 64 -3 203 -8 307 -10 325
-8 707 -16 785 -17 41 0 80 -5 87 -10 7 -6 14 -5 18 2 14 22 25 -4 25 -58 0
-155 46 -430 80 -477 4 -5 13 -32 20 -60 8 -27 19 -59 26 -70 7 -11 18 -49 23
-85 6 -36 19 -87 30 -115 10 -27 22 -85 26 -127 6 -68 5 -78 -9 -78 -9 0 -16
4 -16 8 0 14 -158 34 -245 31 -44 -2 -164 0 -267 4 -140 5 -188 3 -188 -5 0
-7 -6 -4 -13 6 -11 15 -17 16 -35 7 -11 -6 -27 -9 -34 -6 -7 2 -26 10 -43 16
-37 14 -91 18 -263 19 -73 0 -157 5 -185 11 -28 5 -83 12 -122 15 -38 3 -79 8
-90 11 -11 4 -29 7 -40 7 -15 1 -20 7 -18 29 1 18 -3 27 -13 27 -14 0 -18 -10
-15 -42 1 -10 0 -18 -3 -18 -13 0 -56 24 -56 32 0 4 -7 8 -15 8 -8 0 -15 -3
-15 -7 0 -5 -29 -8 -64 -8 -35 0 -68 3 -72 8 -4 4 5 7 19 7 29 0 30 2 21 49
-6 29 -10 31 -48 31 l-41 1 33 28 c18 15 37 45 43 65 10 36 29 50 29 21 0 -17
16 -20 25 -4 7 11 -27 49 -44 49 -5 0 -12 9 -16 19 -3 11 -15 23 -26 26 -22 7
-26 35 -4 35 24 0 65 23 65 36 0 8 -17 16 -41 20 -26 4 -38 11 -35 19 3 8 -4
12 -17 11 -18 -1 -22 5 -24 34 -2 19 -6 72 -9 118 l-6 82 -30 0 c-30 0 -30 1
-15 18 20 22 22 58 5 65 -9 3 -5 11 11 26 28 25 23 24 56 11 16 -6 25 -16 22
-24 -3 -7 -1 -19 4 -27 6 -10 9 -10 9 -1 0 6 7 12 15 12 28 0 -18 65 -51 72
-18 3 -18 4 4 26 15 15 34 22 62 22 29 0 40 4 40 15 0 9 9 15 23 15 13 0 32 7
43 15 10 8 30 14 44 15 17 0 21 -3 12 -9 -11 -7 -10 -10 3 -15 9 -3 26 -6 38
-6 21 1 21 1 -3 15 -14 8 -19 14 -11 15 8 0 11 3 7 7 -4 4 -22 6 -41 5 -18 -1
-36 2 -40 8 -3 5 -18 11 -33 11 -24 1 -23 3 8 9 52 11 120 11 95 0z m8816
-104 c-12 -24 -31 -52 -44 -62 -12 -11 -17 -12 -11 -4 7 8 15 26 19 40 9 33
49 92 53 80 2 -6 -6 -30 -17 -54z m-9201 14 c0 -5 -4 -10 -10 -10 -5 0 -10 5
-10 10 0 6 5 10 10 10 6 0 10 -4 10 -10z m80 -20 c0 -5 -4 -10 -10 -10 -5 0
-10 5 -10 10 0 6 5 10 10 10 6 0 10 -4 10 -10z m-57 -104 c3 -8 -1 -20 -9 -26
-12 -10 -14 -8 -14 14 0 28 14 35 23 12z m10913 -25 c5 -5 180 -12 388 -16
209 -3 382 -8 386 -10 3 -2 111 -6 239 -10 129 -3 237 -8 241 -10 4 -3 124 -7
266 -11 142 -3 262 -8 267 -11 11 -7 -15 -987 -29 -1050 -4 -23 -31 -31 -50
-15 -13 12 -121 36 -169 38 -108 5 -250 2 -259 -5 -16 -12 -169 -6 -221 9 -33
9 -52 10 -76 1 -22 -7 -43 -8 -68 -1 -41 11 -259 8 -278 -3 -7 -4 -30 -4 -50
2 -21 5 -224 10 -452 10 -228 1 -417 4 -421 6 -5 3 -6 22 -5 43 2 20 9 91 16
157 6 66 17 140 24 165 7 25 25 88 40 140 15 52 50 169 80 260 29 91 58 185
65 210 16 60 38 110 48 110 4 0 12 -4 18 -9z m2017 -81 c25 -12 38 -40 18 -40
-20 0 -24 -50 -27 -365 -2 -181 -5 -377 -8 -435 -2 -68 0 -110 7 -118 8 -11 7
-16 -5 -23 -10 -5 -24 -17 -34 -26 -13 -14 -20 -14 -36 -4 -14 9 -23 9 -33 1
-10 -8 -17 -6 -28 11 -18 25 -13 128 6 142 9 7 9 10 0 14 -16 6 -18 129 -2
138 7 5 10 53 8 134 -1 71 1 133 5 139 4 6 5 56 2 112 -2 55 0 102 5 105 22
14 -3 155 -27 155 -13 0 -27 57 -18 71 8 13 133 4 167 -11z m-12793 -470 c0
-5 -2 -10 -4 -10 -3 0 -8 5 -11 10 -3 6 -1 10 4 10 6 0 11 -4 11 -10z m-60
-100 c10 0 29 4 43 9 30 11 52 -1 43 -24 -5 -15 -14 -16 -59 -11 -60 8 -73 17
-62 43 8 17 8 17 12 1 3 -10 13 -18 23 -18z m286 -282 c4 -5 10 -5 17 1 22 17
74 16 95 -2 18 -16 20 -16 45 3 25 20 57 27 57 12 0 -4 64 -6 143 -4 384 8
533 8 545 -1 9 -8 10 -12 2 -17 -12 -8 -24 -242 -38 -775 -6 -245 -9 -270 -24
-273 -11 -2 -21 5 -27 20 -5 13 -36 40 -68 60 -33 21 -65 48 -71 62 -15 34
-38 33 -45 -1 -12 -56 -28 -66 -91 -59 -32 4 -55 10 -52 13 12 12 -18 33 -46
33 -25 0 -29 3 -25 19 3 13 -3 23 -19 31 -24 13 -59 7 -49 -9 3 -5 1 -12 -5
-16 -5 -3 -10 3 -10 14 0 18 -6 21 -40 21 -40 0 -55 -15 -22 -23 9 -2 7 -3 -6
-2 -12 1 -25 -2 -28 -6 -9 -15 -22 -10 -29 11 -4 11 -15 20 -26 20 -18 0 -20
4 -14 30 8 35 7 35 -59 15 -47 -14 -50 -14 -69 6 l-19 20 36 -7 c26 -4 42 -2
54 9 20 17 72 28 72 16 0 -20 18 -7 24 18 8 29 -9 47 -34 37 -32 -13 -44 -14
-22 -3 12 7 22 20 22 30 0 15 -5 17 -30 13 -32 -7 -34 -5 -24 20 7 19 50 21
57 4 4 -10 8 -10 15 0 5 8 22 13 38 12 69 -5 67 -8 59 78 -4 42 -11 78 -16 80
-5 2 -5 12 1 22 7 14 6 23 -5 34 -17 16 -21 66 -5 66 6 0 10 9 10 20 0 27 -8
25 -39 -8 -15 -15 -34 -26 -44 -24 -22 4 -22 21 1 38 15 12 9 13 -40 14 -32 0
-58 5 -58 10 0 6 5 10 10 10 6 0 10 7 10 15 0 8 -5 15 -11 15 -7 0 -10 12 -7
33 3 17 3 52 -1 77 l-6 45 -20 -22 c-15 -18 -30 -23 -67 -23 l-48 0 0 41 0 42
-46 -6 c-63 -7 -86 1 -82 27 2 11 10 21 18 22 8 0 32 3 53 8 37 7 48 20 25 29
-10 4 -10 7 0 14 15 11 70 5 78 -9z m1472 -3 c89 0 162 -1 162 -1 0 -1 4 -24
10 -51 5 -28 12 -102 15 -164 3 -63 12 -148 21 -189 18 -92 29 -160 44 -269 6
-47 21 -108 32 -135 20 -48 106 -176 117 -176 3 0 20 -12 36 -26 17 -14 43
-36 59 -49 l29 -23 -31 2 c-17 1 -37 7 -44 14 -14 14 -48 16 -48 3 0 -10 -112
-7 -129 3 -7 5 -60 10 -119 12 -59 3 -138 7 -177 10 -38 3 -121 7 -184 9 -112
4 -136 6 -238 20 -34 5 -58 4 -66 -3 -7 -6 -18 -7 -25 -3 -10 6 -12 38 -8 137
3 71 6 299 7 506 2 375 2 377 23 380 12 2 95 1 186 -2 91 -2 238 -5 328 -5z
m-1578 -165 c18 -12 2 -12 -25 0 -13 6 -15 9 -5 9 8 0 22 -4 30 -9z m127 -72
c-3 -8 -6 -5 -6 6 -1 11 2 17 5 13 3 -3 4 -12 1 -19z m-24 -103 c-6 -18 -34
-16 -41 3 -2 7 6 12 22 12 19 0 24 -4 19 -15z m1 -50 c4 -11 -1 -15 -19 -15
-24 0 -32 10 -18 23 11 12 31 8 37 -8z m-94 -105 c0 -5 -2 -10 -4 -10 -3 0 -8
5 -11 10 -3 6 -1 10 4 10 6 0 11 -4 11 -10z m130 -74 c0 -3 -4 -8 -10 -11 -5
-3 -10 -1 -10 4 0 6 5 11 10 11 6 0 10 -2 10 -4z m-10 -96 c8 -5 11 -10 5 -10
-5 0 -17 5 -25 10 -8 5 -10 10 -5 10 6 0 17 -5 25 -10z m90 -231 c0 -5 -4 -9
-10 -9 -5 0 -10 7 -10 16 0 8 5 12 10 9 6 -3 10 -10 10 -16z m2330 -163 c0
-23 -5 -35 -17 -39 -10 -2 -27 -8 -38 -12 -16 -7 -15 -3 8 22 15 16 27 37 27
46 0 9 5 17 10 17 6 0 10 -15 10 -34z m-1305 -91 c1032 -12 1313 -19 1326 -32
5 -5 15 -55 24 -113 9 -58 20 -114 25 -125 17 -43 37 -125 57 -230 3 -16 9
-35 14 -41 5 -5 10 -26 13 -45 2 -19 12 -54 21 -79 20 -56 43 -136 61 -218 8
-35 18 -71 23 -80 5 -9 12 -38 16 -64 l7 -48 -33 6 c-19 4 -44 13 -57 21 -12
8 -28 10 -35 6 -7 -4 -30 -9 -52 -10 -22 -1 -47 -2 -55 -3 -8 0 -69 2 -135 5
-191 8 -251 8 -262 2 -5 -4 -34 -2 -64 4 -30 5 -65 10 -78 9 -12 0 -28 3 -33
6 -14 9 -188 8 -210 -1 -11 -5 -18 -3 -18 5 0 7 -8 10 -19 7 -12 -3 -18 1 -17
11 0 8 -5 17 -11 19 -7 3 -13 -2 -13 -11 0 -9 -4 -16 -10 -16 -5 0 -10 4 -10
9 0 10 -55 9 -66 -2 -4 -4 -14 -2 -21 5 -11 9 -19 9 -33 1 -22 -15 -39 -12
-84 12 -36 20 -46 40 -23 48 7 2 5 3 -3 3 -9 -1 -15 -11 -14 -24 0 -19 -5 -22
-38 -24 -21 -1 -45 -2 -55 -2 -9 -1 -18 5 -21 13 -3 10 2 13 22 9 18 -4 26 -1
26 9 0 14 -49 38 -58 28 -3 -3 0 -5 7 -5 28 0 -2 -19 -40 -25 -54 -9 -64 2
-45 51 20 53 17 74 -11 85 -12 5 -23 13 -23 18 0 6 -15 15 -32 20 -32 9 -32 9
15 10 l47 1 0 40 c0 40 0 40 40 40 31 0 38 3 33 15 -3 9 2 22 13 30 18 13 18
14 -8 24 -32 12 -37 31 -9 31 11 0 23 5 27 11 5 8 -3 10 -24 7 -29 -4 -32 -2
-37 26 -4 18 0 46 9 68 18 43 21 78 6 78 -6 0 -8 -11 -4 -25 5 -19 2 -25 -10
-25 -10 0 -16 -8 -16 -21 0 -29 -18 -59 -35 -59 -17 0 -21 55 -6 64 5 3 7 15
4 27 -4 14 -10 18 -22 13 -9 -4 -33 -9 -53 -12 -29 -3 -38 -9 -38 -23 0 -23 8
-24 31 -3 23 21 49 11 49 -17 0 -29 -27 -48 -70 -49 l-35 -1 24 -20 c17 -14
27 -17 35 -9 15 15 42 12 56 -5 16 -20 10 -26 -37 -35 -21 -4 -47 -11 -58 -15
-15 -5 -16 -4 -6 3 16 11 7 32 -14 32 -7 0 -20 -6 -27 -13 -7 -8 -30 -13 -51
-13 -28 1 -37 5 -37 19 0 28 -17 19 -23 -13 -4 -16 -13 -30 -21 -30 -16 0 -39
49 -36 76 1 11 2 28 1 39 -2 19 -2 19 -15 3 -7 -10 -16 -18 -20 -18 -3 0 -15
-9 -27 -21 -25 -25 -29 -22 -22 11 2 14 14 30 26 35 12 6 24 20 27 33 3 13 8
23 13 23 31 -3 41 0 29 8 -7 4 -12 19 -11 32 4 43 -1 59 -16 59 -9 0 -18 7
-21 15 -9 21 -41 19 -47 -4 -3 -12 0 -18 7 -15 6 2 17 0 24 -5 22 -13 -3 -91
-29 -91 -13 0 -19 6 -17 18 2 11 -8 22 -29 32 -22 10 -33 22 -33 38 0 12 5 22
10 22 6 0 10 8 8 18 -2 13 4 17 27 16 17 0 35 5 41 10 6 6 26 22 46 35 24 17
34 30 30 43 -2 10 -9 18 -14 18 -5 0 -7 -4 -4 -9 3 -5 -10 -18 -29 -30 l-35
-20 0 22 c0 12 7 31 15 41 40 53 -14 65 -59 14 -19 -22 -29 -45 -30 -68 -1
-19 -5 -38 -11 -42 -5 -4 -9 -30 -8 -58 2 -43 0 -50 -16 -50 -10 0 -24 7 -31
15 -10 13 -9 15 9 15 11 0 21 6 21 13 -1 17 -50 95 -50 78 0 -26 -12 -2 -20
38 -5 30 -4 41 6 45 48 18 -30 79 -89 69 -23 -3 -37 -2 -37 5 0 15 -67 35 -96
28 -30 -8 -67 10 -60 30 6 16 -33 20 -50 5 -5 -4 -24 -11 -41 -14 -25 -5 -33
-3 -33 8 0 18 -37 38 -57 31 -14 -6 -14 -4 -1 16 15 22 21 23 161 23 81 1 149
4 153 8 4 3 79 4 168 2 88 -3 341 -7 561 -10z m-1072 -2 c-7 -2 -19 -2 -25 0
-7 3 -2 5 12 5 14 0 19 -2 13 -5z m212 -141 c-3 -3 -11 0 -18 7 -9 10 -8 11 6
5 10 -3 15 -9 12 -12z m9422 -41 c100 -1 328 -5 505 -11 178 -5 528 -14 778
-21 250 -6 469 -12 485 -14 17 -2 204 -7 417 -11 213 -4 392 -10 398 -14 7 -4
6 -117 -5 -386 -9 -208 -17 -443 -18 -521 -4 -157 -13 -188 -49 -156 -11 9
-17 25 -15 35 7 24 -8 31 -32 16 -16 -10 -23 -10 -33 0 -14 14 -94 16 -103 2
-3 -6 -17 -7 -30 -4 -13 3 -26 0 -30 -7 -6 -8 -13 -5 -27 12 -12 15 -21 20
-24 12 -4 -8 -57 -13 -177 -15 -279 -5 -344 -3 -359 10 -11 8 -42 9 -120 2
-106 -9 -1602 -5 -1618 5 -10 6 -112 7 -258 2 -70 -3 -111 0 -127 9 -15 7 -27
9 -30 3 -4 -5 -18 -9 -32 -9 -21 0 -24 3 -19 23 3 12 20 81 37 152 16 72 34
144 40 161 5 17 9 44 9 62 0 17 4 33 9 36 5 3 9 22 9 41 0 42 35 200 69 310
14 44 29 122 34 174 5 51 13 99 19 106 7 8 25 9 62 4 29 -4 135 -8 235 -8z
m-9177 -37 c0 -8 -7 -14 -15 -14 -10 0 -15 10 -15 26 0 22 2 25 15 14 8 -7 15
-19 15 -26z m190 -39 c0 -8 -4 -15 -9 -15 -13 0 -22 16 -14 24 11 11 23 6 23
-9z m-185 -95 c0 -22 -29 -18 -33 3 -3 14 1 18 15 15 10 -2 18 -10 18 -18z
m48 -93 c4 -10 -3 -12 -27 -9 -27 4 -28 6 -11 13 29 11 32 11 38 -4z m52 3 c3
-5 -1 -10 -9 -10 -9 0 -16 5 -16 10 0 6 4 10 9 10 6 0 13 -4 16 -10z m505
-211 c0 -13 -6 -18 -20 -16 -38 6 -39 31 -1 34 15 1 21 -4 21 -18z m-380 0 c0
-11 -24 -39 -34 -39 -12 0 -6 38 7 43 20 9 27 8 27 -4z m60 1 c0 -5 -5 -10
-11 -10 -5 0 -7 5 -4 10 3 6 8 10 11 10 2 0 4 -4 4 -10z m175 -10 c3 -5 1 -10
-4 -10 -6 0 -11 5 -11 10 0 6 2 10 4 10 3 0 8 -4 11 -10z m41 -28 c-22 -5 -30
3 -21 18 5 8 11 7 22 -2 15 -12 14 -13 -1 -16z m24 -44 c0 -16 -3 -19 -11 -11
-6 6 -8 16 -5 22 11 17 16 13 16 -11z m80 -104 c0 -17 -22 -14 -28 4 -2 7 3
12 12 12 9 0 16 -7 16 -16z m-320 -20 c0 -8 -4 -12 -10 -9 -5 3 -10 10 -10 16
0 5 5 9 10 9 6 0 10 -7 10 -16z m334 -59 c3 -8 1 -15 -4 -15 -6 0 -10 7 -10
15 0 8 2 15 4 15 2 0 6 -7 10 -15z m11286 -82 c0 -7 -4 -13 -10 -13 -5 0 -10
12 -10 28 0 21 2 24 10 12 5 -8 10 -21 10 -27z m60 -23 c0 -5 -4 -10 -9 -10
-6 0 -13 5 -16 10 -3 6 1 10 9 10 9 0 16 -4 16 -10z m-57 -70 c25 0 14 -13
-13 -15 -14 -1 -20 4 -19 19 0 12 3 15 6 9 2 -7 14 -13 26 -13z m-11968 -39
c7 -13 -16 -26 -24 -14 -3 6 -13 13 -21 16 -9 3 -4 6 12 6 15 1 29 -3 33 -8z
m368 -35 c-3 -36 -23 -79 -23 -48 0 7 -16 12 -40 12 -31 0 -40 -4 -40 -17 0
-14 -4 -13 -24 6 -19 18 -32 22 -53 17 -21 -5 -24 -4 -13 4 13 9 13 11 0 20
-12 7 -12 12 -3 21 10 10 14 9 19 -4 9 -24 24 -21 24 4 0 19 5 21 33 17 17 -3
43 -1 57 3 51 15 65 8 63 -35z m622 29 c669 -8 1166 -17 1277 -23 21 -2 28 -8
33 -34 4 -18 11 -37 15 -43 4 -5 17 -44 30 -85 12 -41 31 -96 41 -122 11 -26
19 -57 19 -69 0 -12 17 -56 37 -98 20 -42 51 -105 69 -141 53 -112 176 -295
207 -308 4 -2 7 -8 7 -12 0 -5 12 -21 26 -35 22 -22 24 -28 13 -41 -12 -14
-14 -14 -20 3 -4 10 -16 24 -27 32 -11 8 -18 20 -15 28 3 7 0 13 -6 13 -6 0
-11 -5 -11 -12 0 -24 -13 3 -19 39 -3 20 -13 38 -21 41 -12 4 -13 2 -2 -9 6
-7 12 -19 12 -27 0 -11 -3 -11 -15 1 -8 9 -24 13 -36 10 -15 -4 -20 -3 -15 5
4 7 15 12 24 12 16 1 16 1 0 10 -12 7 -15 20 -12 45 2 21 0 35 -6 35 -6 0 -10
-8 -8 -17 3 -15 -4 -18 -39 -16 -24 1 -43 -2 -43 -8 0 -5 7 -9 16 -9 29 0 8
-25 -24 -27 -28 -2 -34 2 -52 37 -11 21 -20 51 -20 65 0 25 -14 34 -25 15 -3
-5 -1 -10 4 -10 14 0 14 -47 0 -55 -5 -4 -18 0 -28 9 -10 9 -21 16 -24 16 -11
0 -8 -65 3 -96 6 -15 8 -30 4 -33 -4 -3 -9 0 -12 8 -3 10 -6 10 -12 1 -11 -19
-27 -5 -34 31 l-6 31 -25 -23 c-13 -13 -25 -30 -25 -36 0 -7 -6 -13 -14 -13
-8 0 -17 -11 -20 -25 -4 -14 -10 -25 -15 -25 -5 0 -11 11 -13 25 -4 17 -1 25
9 25 8 0 13 7 11 18 -2 10 -11 16 -23 14 -40 -5 -60 -10 -76 -17 -22 -8 -34
12 -19 30 15 18 5 35 -21 35 -13 0 -24 10 -30 30 -10 28 -29 41 -29 20 0 -5 5
-10 10 -10 23 0 8 -19 -19 -25 -16 -3 -35 -13 -42 -21 -17 -20 -79 -17 -117 6
-38 24 -52 25 -52 6 0 -9 -7 -12 -20 -9 -16 4 -20 -1 -26 -36 -4 -23 -10 -41
-14 -41 -12 0 -23 57 -14 71 4 8 3 9 -4 5 -7 -4 -19 -3 -29 2 -14 9 -14 10 6
17 22 7 22 7 -5 28 -15 12 -39 21 -53 22 -20 0 -26 5 -26 24 0 39 -23 36 -41
-7 l-17 -39 -39 16 c-21 9 -38 21 -38 27 0 6 -7 17 -15 24 -17 14 -9 34 11 26
8 -3 14 1 14 8 0 8 -6 16 -12 19 -9 3 -7 7 5 12 22 9 52 -14 37 -29 -5 -5 -10
-14 -10 -18 0 -13 27 -9 40 7 7 9 22 12 39 9 18 -4 33 0 44 10 23 24 40 21 27
-4 -9 -17 -8 -20 10 -20 11 0 20 5 20 10 0 6 10 15 23 20 16 6 17 9 5 9 -9 1
-23 10 -31 21 -13 18 -90 59 -113 60 -6 0 -9 -12 -6 -29 4 -29 -10 -47 -28
-36 -6 4 -6 15 0 30 9 22 7 25 -15 25 -15 0 -25 -6 -25 -14 0 -8 -7 -16 -15
-20 -18 -6 -19 -2 -4 25 9 17 7 21 -10 26 -27 7 -26 14 1 38 16 13 19 20 9 23
-7 2 -17 -1 -21 -8 -5 -8 -17 -10 -31 -6 -49 13 -52 18 -34 80 9 32 14 60 11
63 -3 4 -6 -1 -6 -10 0 -21 -15 -21 -89 -1 -57 16 -60 16 -78 -1 -10 -10 -18
-28 -18 -39 0 -13 -8 -22 -20 -24 -19 -3 -19 -2 -2 9 18 10 18 12 -3 26 -15
10 -32 13 -56 8 -31 -5 -35 -4 -32 12 4 18 28 22 59 9 9 -4 22 -1 30 7 8 8 25
20 38 26 19 11 25 11 32 0 6 -11 13 -11 36 0 l28 13 -22 15 c-13 9 -23 21 -23
28 0 16 -33 30 -38 16 -2 -6 -21 -11 -43 -11 -21 0 -39 -4 -39 -10 0 -5 18
-10 40 -10 29 0 40 -4 40 -15 0 -9 -9 -15 -24 -15 -13 0 -30 -2 -38 -5 -7 -3
-26 6 -43 20 l-30 25 24 20 c13 11 18 20 12 20 -6 0 -11 9 -11 19 0 11 -4 22
-8 25 -13 8 -35 -11 -27 -24 8 -14 -11 -30 -36 -30 -12 0 -15 7 -11 25 3 16
-2 33 -13 44 -11 14 -16 32 -13 62 2 27 -1 44 -9 46 -7 3 -13 -2 -13 -11 0
-23 -36 -39 -60 -26 -11 6 -20 8 -20 5 0 -3 -9 -1 -20 5 -14 7 -26 8 -40 0
-15 -8 -21 -6 -30 10 -14 27 -46 26 -54 -2 -5 -22 -6 -22 -19 -3 -13 17 -18
18 -58 6 -40 -12 -43 -12 -59 10 -11 14 -23 20 -33 16 -9 -3 -19 -2 -22 3 -4
6 -26 10 -50 10 -35 0 -48 5 -64 26 -39 50 -17 78 54 68 11 -2 227 -6 480 -9z
m10955 -61 c0 -8 -5 -12 -10 -9 -6 4 -8 11 -5 16 9 14 15 11 15 -7z m-11840
-4 c0 -5 -2 -10 -4 -10 -3 0 -8 5 -11 10 -3 6 -1 10 4 10 6 0 11 -4 11 -10z
m850 -114 c0 -7 3 -28 6 -45 6 -27 4 -31 -16 -31 -20 0 -22 4 -16 31 3 17 6
38 6 45 0 8 5 14 10 14 6 0 10 -6 10 -14z m8483 -20 c32 -2 62 -7 68 -13 6 -6
6 -73 -1 -194 -9 -156 -29 -702 -30 -822 0 -46 -25 -61 -49 -29 -14 19 -25 22
-89 20 -44 0 -78 4 -84 10 -16 16 -67 15 -74 -2 -7 -19 -102 -20 -132 0 -15
10 -27 12 -35 6 -17 -14 -417 -11 -417 3 0 5 -4 4 -9 -4 -5 -7 -14 -11 -19 -7
-6 4 -57 9 -114 11 -57 3 -121 7 -143 11 -55 8 -55 8 -97 0 -25 -4 -38 -3 -38
4 0 16 83 169 132 244 87 131 118 183 118 194 0 7 5 12 10 12 6 0 23 26 39 58
16 31 42 82 58 112 39 74 103 231 103 253 0 24 30 119 43 135 9 11 76 12 356
7 190 -4 372 -8 404 -9z m977 -8 c14 0 142 -4 285 -9 308 -10 616 -18 1040
-25 330 -6 378 -10 383 -36 4 -19 -63 -68 -93 -68 -11 0 -31 -9 -44 -19 l-24
-19 28 -14 28 -15 -46 -11 c-25 -7 -60 -12 -76 -12 -29 0 -31 -2 -31 -39 0
-22 5 -41 11 -43 7 -2 9 -13 4 -28 l-7 -23 -16 26 c-26 42 -52 30 -52 -25 0
-11 -18 -37 -40 -58 -22 -21 -40 -47 -40 -57 0 -19 -53 -73 -72 -73 -5 0 -6 9
-2 23 4 12 8 33 8 47 1 28 -21 34 -84 23 -29 -4 -31 -7 -15 -13 19 -7 19 -7
-3 -19 -22 -12 -29 -35 -13 -45 5 -3 20 3 34 14 38 30 47 25 47 -25 0 -45 0
-45 36 -45 31 0 64 -18 64 -34 0 -3 -27 -6 -60 -6 -41 0 -60 4 -60 13 0 6 -5
19 -10 27 -9 13 -11 13 -20 0 -16 -25 -11 -38 20 -49 37 -12 41 -41 6 -41 -14
0 -28 5 -31 10 -12 20 -26 10 -25 -17 1 -16 2 -34 1 -40 -1 -18 -28 -16 -35 2
-3 8 -15 15 -26 15 -15 0 -20 7 -20 25 0 35 -26 32 -38 -4 -12 -33 -7 -41 20
-41 10 0 18 -6 18 -14 0 -8 3 -21 6 -30 4 -11 0 -16 -14 -16 -12 0 -24 5 -27
10 -3 6 -15 10 -26 10 -14 0 -19 7 -19 26 0 22 -2 25 -15 14 -8 -7 -15 -23
-15 -35 0 -18 -7 -24 -30 -27 -18 -3 -35 1 -44 11 -14 13 -18 13 -36 -4 -11
-10 -20 -26 -20 -36 0 -10 -9 -19 -22 -21 -12 -2 -29 -16 -38 -33 -14 -25 -24
-31 -58 -33 -30 -2 -43 -8 -47 -23 -4 -10 -12 -19 -18 -20 -7 0 -3 -4 8 -8 11
-5 30 -4 43 0 52 20 77 12 100 -33 l22 -43 -38 -5 c-42 -6 -53 -3 -33 9 21 13
3 31 -31 31 -23 0 -29 -4 -24 -15 3 -9 0 -15 -9 -15 -8 0 -15 5 -15 10 0 6
-21 10 -47 10 -27 0 -64 4 -84 9 -34 8 -35 7 -31 -20 4 -28 -10 -40 -23 -19
-7 12 -67 8 -78 -5 -6 -6 -10 -6 -14 3 -2 6 -13 12 -24 12 -10 0 -19 5 -19 10
0 13 -36 13 -61 0 -13 -7 -19 -7 -19 0 0 14 -83 13 -98 -2 -7 -7 -36 -11 -69
-10 -121 3 -341 4 -463 1 -14 0 -38 7 -54 15 -29 15 -73 13 -108 -6 -12 -6
-18 -5 -18 3 0 8 -3 9 -14 0 -7 -6 -24 -10 -37 -10 -13 1 -32 -2 -41 -6 -13
-5 -20 -2 -25 11 -11 31 -22 32 -74 13 -65 -25 -69 -24 -69 11 0 19 -5 30 -14
30 -10 0 -15 15 -18 50 -1 28 0 50 3 50 3 0 4 25 1 55 -2 31 -1 55 4 53 5 -2
9 2 9 7 0 6 -3 9 -6 8 -4 -1 -6 78 -5 177 1 127 5 183 14 192 15 15 17 154 2
163 -5 3 -9 40 -9 81 1 53 -4 82 -15 100 -9 13 -14 30 -10 36 5 8 120 9 423 3
229 -5 427 -8 441 -7z m-9395 -118 c3 -5 -3 -10 -14 -10 -12 0 -21 5 -21 10 0
6 6 10 14 10 8 0 18 -4 21 -10z m11025 -79 c0 -6 -4 -13 -10 -16 -5 -3 -10 1
-10 9 0 9 5 16 10 16 6 0 10 -4 10 -9z m-10770 -26 c11 -13 8 -15 -19 -15 -31
0 -42 14 -18 23 20 9 24 8 37 -8z m-400 1 c0 -3 -4 -8 -10 -11 -5 -3 -10 -1
-10 4 0 6 5 11 10 11 6 0 10 -2 10 -4z m250 -16 c0 -5 -4 -10 -10 -10 -5 0
-10 5 -10 10 0 6 5 10 10 10 6 0 10 -4 10 -10z m10860 -30 c0 -33 -3 -40 -20
-40 -17 0 -20 7 -20 40 0 33 3 40 20 40 17 0 20 -7 20 -40z m-10716 -21 c20
-12 36 -27 36 -34 0 -9 17 -16 45 -21 47 -7 66 -21 45 -34 -9 -6 -9 -9 1 -12
8 -3 -1 -5 -19 -5 -19 0 -28 3 -20 8 8 5 3 10 -15 15 -35 8 -42 2 -39 -41 3
-41 -6 -44 -32 -9 -18 25 -18 26 5 50 l22 24 -23 25 c-13 14 -32 25 -42 25
-18 0 -24 11 -11 23 9 9 7 10 47 -14z m-107 -25 c-3 -3 -12 -4 -19 -1 -8 3 -5
6 6 6 11 1 17 -2 13 -5z m-17 -54 c0 -18 -3 -19 -20 -10 -11 6 -20 15 -20 20
0 6 9 10 20 10 13 0 20 -7 20 -20z m-60 -20 c0 -5 -4 -10 -10 -10 -5 0 -10 5
-10 10 0 6 5 10 10 10 6 0 10 -4 10 -10z m280 -50 c0 -5 -4 -10 -10 -10 -5 0
-10 5 -10 10 0 6 5 10 10 10 6 0 10 -4 10 -10z m68 -13 c2 -10 -3 -17 -11 -17
-18 0 -39 24 -30 34 12 12 38 2 41 -17z m10368 -15 c-8 -2 -17 -13 -19 -25 -3
-21 -4 -21 -12 -3 -6 13 -5 21 3 24 7 2 12 13 12 25 1 22 1 22 16 2 13 -18 13
-20 0 -23z m-10191 8 c3 -5 -1 -10 -9 -10 -9 0 -16 5 -16 10 0 6 4 10 9 10 6
0 13 -4 16 -10z m-225 -59 c0 -5 3 -18 7 -28 6 -17 6 -17 -10 -1 -19 18 -22
38 -7 38 6 0 10 -4 10 -9z m10378 -14 c2 -12 -3 -17 -17 -17 -12 0 -21 6 -21
13 0 31 32 34 38 4z m-10598 -17 c18 -12 2 -12 -25 0 -13 6 -15 9 -5 9 8 0 22
-4 30 -9z m460 -61 c0 -4 -7 -6 -15 -3 -8 4 -15 10 -15 15 0 4 7 6 15 3 8 -4
15 -10 15 -15z m-190 -9 c0 -5 -4 -10 -10 -10 -5 0 -10 5 -10 10 0 6 5 10 10
10 6 0 10 -4 10 -10z m610 -21 c0 -6 -12 -23 -28 -38 -23 -23 -31 -26 -50 -18
-33 15 -27 27 14 27 27 0 37 5 41 20 6 21 23 28 23 9z m-367 -34 c10 -14 14
-25 9 -25 -19 0 -62 26 -62 38 0 21 34 13 53 -13z m132 15 c3 -5 17 -10 31
-10 19 0 24 -5 24 -26 0 -25 2 -26 43 -23 38 4 43 2 39 -13 -3 -13 2 -18 16
-18 25 0 34 -11 23 -29 -6 -9 -19 -11 -40 -6 -30 6 -53 25 -32 25 6 0 11 5 11
10 0 6 -13 10 -30 10 -16 0 -30 -4 -30 -10 0 -5 -8 -10 -17 -10 -17 1 -17 1 0
14 24 18 21 26 -9 26 -14 0 -22 4 -19 10 3 5 -3 15 -15 22 -11 7 -20 18 -20
25 0 15 16 17 25 3z m240 -40 c3 -5 1 -10 -4 -10 -6 0 -11 -10 -11 -22 0 -21
-1 -21 -14 -3 -10 14 -11 22 -2 31 13 16 23 17 31 4z m9605 -25 c0 -8 -7 -15
-15 -15 -8 0 -15 -7 -15 -15 0 -8 -4 -15 -10 -15 -11 0 -14 43 -3 53 12 13 43
7 43 -8z m46 -42 c-7 -7 -36 16 -36 27 0 5 8 10 18 12 16 3 31 -27 18 -39z
m-10186 7 c0 -5 -2 -10 -4 -10 -3 0 -8 5 -11 10 -3 6 -1 10 4 10 6 0 11 -4 11
-10z m9743 -120 c-20 -23 -33 -26 -33 -6 0 13 13 20 42 25 4 0 0 -8 -9 -19z
m378 -70 c17 0 9 -18 -11 -23 -16 -4 -20 0 -20 22 0 34 14 51 18 22 2 -12 8
-21 13 -21z m-415 3 c-10 -10 -19 5 -10 18 6 11 8 11 12 0 2 -7 1 -15 -2 -18z
m-10118 -17 c3 -15 0 -18 -19 -13 -13 4 -40 7 -60 7 -19 0 -44 7 -55 15 -17
14 -12 15 56 12 63 -3 75 -6 78 -21z m67 4 c-3 -5 -13 -10 -21 -10 -8 0 -14 5
-14 10 0 6 9 10 21 10 11 0 17 -4 14 -10z m640 -3 c204 -4 383 -7 399 -7 15 0
33 -4 40 -9 13 -10 128 -8 200 4 36 6 47 5 42 -3 -4 -7 -14 -12 -22 -12 -8 0
-14 -4 -14 -10 0 -19 -54 -39 -74 -28 -11 6 -16 7 -13 1 10 -15 -69 -36 -91
-24 -13 7 -22 7 -29 0 -12 -12 -53 -3 -53 12 0 16 -29 10 -39 -8 -8 -16 -11
-14 -22 10 -11 24 -17 27 -63 27 -37 0 -47 -3 -36 -10 11 -7 2 -10 -33 -10
-30 0 -46 4 -42 10 3 6 1 10 -4 10 -6 0 -11 -4 -11 -10 0 -5 -9 -10 -20 -10
-11 0 -20 5 -20 10 0 6 -4 10 -10 10 -5 0 -10 -7 -10 -15 0 -16 -35 -20 -67
-8 -16 6 -15 8 7 14 25 7 25 7 -3 8 -16 1 -37 6 -47 11 -26 14 -100 2 -100
-16 0 -19 -10 -18 -26 4 -10 13 -16 14 -22 5 -5 -8 -31 -12 -67 -12 -33 1 -76
0 -95 -1 -52 -4 -120 11 -120 25 0 7 -9 15 -20 18 -11 3 -20 9 -20 14 0 9 12
9 505 0z m9782 -9 c-3 -8 -6 -5 -6 6 -1 11 2 17 5 13 3 -3 4 -12 1 -19z m-287
-8 c0 -5 -18 -10 -40 -10 -22 0 -40 5 -40 10 0 6 18 10 40 10 22 0 40 -4 40
-10z m-10030 -10 c0 -5 -4 -10 -10 -10 -5 0 -10 5 -10 10 0 6 5 10 10 10 6 0
10 -4 10 -10z m7585 -125 c554 -6 713 -9 1345 -24 190 -5 354 -9 365 -9 11 0
52 -2 90 -6 79 -6 645 -18 837 -18 70 1 130 -3 133 -8 3 -5 29 -6 57 -3 l51 6
-6 -29 c-8 -37 -16 -169 -21 -347 -2 -82 -8 -143 -14 -149 -7 -7 -9 -33 -5
-70 4 -37 2 -58 -4 -58 -14 0 -28 151 -15 159 6 3 10 56 9 126 0 66 1 153 2
194 3 60 0 76 -13 83 -9 5 -14 14 -10 19 3 6 -30 8 -93 5 -166 -9 -396 -9
-434 -2 -32 7 -36 5 -48 -21 -8 -16 -16 -23 -18 -15 -6 17 -29 15 -58 -4 -14
-9 -25 -12 -25 -6 0 5 -30 13 -67 17 -38 4 -73 11 -79 16 -6 5 -16 0 -25 -12
-40 -58 -37 -56 -51 -23 -13 30 -38 36 -38 9 0 -23 -19 -27 -42 -11 -12 9 -31
16 -41 16 -11 0 -15 5 -11 11 4 8 -1 9 -17 4 -13 -4 -27 -12 -31 -18 -4 -7
-12 -6 -23 3 -14 12 -18 12 -26 -1 -6 -10 -2 -19 13 -30 11 -9 18 -21 14 -28
-5 -7 2 -11 20 -11 16 0 36 -10 51 -27 18 -19 27 -23 33 -14 5 9 9 4 12 -13 5
-25 4 -26 -49 -26 -49 0 -58 -4 -86 -32 -19 -21 -32 -28 -34 -20 -3 7 -21 12
-44 12 -31 0 -43 -6 -61 -30 -20 -27 -27 -30 -80 -30 -55 0 -58 -1 -58 -25 0
-23 4 -25 43 -25 31 0 38 -3 27 -10 -8 -6 -27 -7 -42 -4 -27 5 -28 4 -28 -35
l0 -41 -40 0 c-29 0 -40 -4 -40 -15 0 -8 -7 -15 -15 -15 -8 0 -15 7 -15 15 0
12 -15 15 -75 15 l-75 0 0 -40 c0 -39 -1 -40 -34 -40 -30 0 -33 -2 -29 -24 4
-18 -4 -33 -28 -57 -29 -28 -34 -30 -44 -15 -10 12 -30 16 -89 16 l-76 0 0 40
c0 40 0 40 -39 40 -37 0 -40 -2 -43 -32 l-3 -33 -30 29 c-27 27 -28 30 -10 36
17 6 17 8 -6 31 l-24 24 -3 -27 c-3 -25 -7 -28 -43 -28 -36 0 -39 -2 -39 -29
0 -24 -3 -28 -20 -24 -14 4 -20 0 -20 -11 0 -9 -8 -16 -20 -16 -11 0 -20 5
-20 11 0 5 -5 7 -12 3 -9 -6 -9 -9 0 -12 22 -7 13 -19 -28 -37 -39 -18 -40
-19 -40 -72 0 -38 -4 -53 -14 -53 -7 0 -16 -9 -19 -20 -5 -18 -11 -19 -66 -14
-51 6 -61 4 -61 -9 0 -8 -7 -18 -16 -21 -8 -3 -12 -11 -8 -17 4 -7 -1 -10 -12
-7 -14 2 -18 11 -16 29 2 17 -3 29 -12 32 -11 4 -16 1 -16 -10 0 -12 -3 -13
-14 -3 -8 6 -12 18 -9 26 6 17 64 19 82 2 11 -10 14 -10 18 0 3 6 11 12 20 12
8 0 13 6 10 13 -2 8 -20 11 -54 9 -43 -3 -52 -1 -55 15 -3 16 -6 15 -28 -8
-16 -16 -40 -28 -65 -32 -22 -3 -32 -3 -22 -1 18 6 24 44 7 44 -5 0 -10 -4
-10 -10 0 -5 -4 -10 -10 -10 -5 0 -10 14 -10 30 0 17 -4 30 -10 30 -5 0 -10
-7 -10 -15 0 -19 -69 -21 -92 -2 -20 16 -72 87 -67 91 2 1 19 9 37 16 27 11
35 11 42 1 6 -10 12 -10 29 -2 11 7 21 16 21 21 0 9 -121 9 -130 0 -19 -19
-61 -33 -109 -35 -31 -1 -37 0 -13 2 40 4 42 6 42 37 0 18 -5 47 -11 65 -9 25
-15 30 -30 26 -14 -5 -19 -1 -19 14 0 24 -6 25 -40 6 -37 -21 -47 -18 -54 17
-8 41 -1 47 24 18 l20 -23 0 41 c0 36 3 42 21 42 18 0 16 6 -20 40 -22 22 -45
40 -50 40 -5 0 -14 -13 -21 -30 -7 -16 -16 -30 -20 -30 -10 0 -31 50 -25 59 2
5 -18 6 -45 3 -41 -4 -50 -2 -50 11 0 9 6 20 14 24 18 11 30 69 16 78 -7 4
-14 -2 -17 -14 -3 -12 -12 -21 -20 -21 -10 0 -13 6 -9 16 3 9 6 26 6 39 0 19
6 24 33 27 32 4 32 4 7 15 -18 7 -28 7 -38 -3 -19 -20 -32 -17 -32 6 0 11 -2
20 -4 20 -2 0 -11 3 -20 6 -11 4 -16 0 -16 -14 0 -11 7 -22 15 -26 8 -3 12
-12 9 -21 -3 -8 -10 -12 -15 -9 -5 3 -9 -2 -9 -10 0 -9 -9 -16 -20 -16 -11 0
-20 -4 -20 -9 0 -5 -18 -18 -40 -29 -31 -15 -40 -16 -40 -6 0 8 9 14 21 14 19
0 20 4 14 50 -5 33 -3 50 4 50 6 0 9 6 7 13 -3 6 -7 25 -11 41 -5 23 -8 27
-16 15 -7 -11 -9 -9 -9 9 0 23 -15 28 -38 13 -10 -6 -7 -13 14 -28 31 -23 28
-53 -6 -53 -12 0 -20 -7 -21 -17 0 -10 -3 -13 -5 -6 -3 6 2 25 10 41 14 26 14
31 1 36 -10 4 -15 -1 -15 -14 0 -11 -5 -19 -12 -17 -6 1 -18 -11 -27 -28 -9
-18 -16 -25 -19 -17 -2 8 1 19 7 25 6 6 11 19 11 29 0 9 6 32 14 50 7 18 19
51 26 73 20 65 23 67 124 61 50 -3 339 -8 641 -11z m-6709 -103 c-15 -15 -16
-15 -16 1 0 10 5 15 10 12 6 -3 10 2 11 12 0 12 2 14 6 5 3 -8 -2 -21 -11 -30z
m9873 23 c38 -8 40 -24 4 -27 -16 -1 -41 -3 -58 -5 -92 -8 -126 -6 -145 12
-11 10 -18 21 -15 25 5 8 171 5 214 -5z m-9899 -49 c0 -3 -4 -8 -10 -11 -5 -3
-10 -1 -10 4 0 6 5 11 10 11 6 0 10 -2 10 -4z m5947 -98 c-3 -8 -6 -5 -6 6 -1
11 2 17 5 13 3 -3 4 -12 1 -19z m28 -45 c-9 -36 -13 -39 -27 -25 -9 9 -7 13 5
17 9 4 13 13 10 21 -3 8 0 14 7 14 8 0 10 -9 5 -27z m2732 -40 c-3 -10 -5 -2
-5 17 0 19 2 27 5 18 2 -10 2 -26 0 -35z m-2737 -23 c0 -5 -5 -10 -11 -10 -5
0 -7 5 -4 10 3 6 8 10 11 10 2 0 4 -4 4 -10z m78 -42 c-5 -15 -23 -11 -26 6
-2 11 2 14 13 10 9 -4 14 -11 13 -16z m-48 -27 c0 -6 -4 -13 -10 -16 -5 -3
-10 1 -10 9 0 9 5 16 10 16 6 0 10 -4 10 -9z m2348 -13 c-2 -13 -7 -23 -13
-23 -5 0 -11 10 -13 23 -2 15 2 22 13 22 11 0 15 -7 13 -22z m-2281 -50 c-3
-8 -6 -5 -6 6 -1 11 2 17 5 13 3 -3 4 -12 1 -19z m2208 -14 c0 -12 -8 -20 -22
-22 -25 -4 -31 16 -11 36 17 17 33 10 33 -14z m-1895 -8 c0 -9 -7 -12 -20 -9
-31 8 -34 23 -6 23 16 0 26 -6 26 -14z m1960 -2 c0 -8 -4 -12 -10 -9 -5 3 -10
10 -10 16 0 5 5 9 10 9 6 0 10 -7 10 -16z m-120 -28 c0 -19 -6 -36 -13 -39 -9
-3 -11 6 -9 34 5 48 22 52 22 5z m-2160 -96 c0 -16 42 -60 52 -54 4 3 8 -2 8
-11 0 -9 4 -14 9 -11 5 4 12 -7 16 -24 4 -16 11 -30 17 -30 6 0 8 7 4 15 -3 8
-1 15 4 15 9 0 14 -17 13 -47 -1 -7 3 -13 8 -13 5 0 9 -9 9 -20 0 -22 15 -27
24 -7 4 6 4 1 2 -12 -6 -33 14 -64 32 -49 11 9 13 6 10 -18 -2 -22 2 -31 20
-39 12 -5 22 -13 22 -17 0 -5 9 -17 20 -28 11 -11 22 -32 25 -47 5 -26 5 -26
-5 -5 -5 13 -14 21 -18 18 -11 -7 -75 60 -95 99 -8 17 -29 43 -46 59 -17 17
-31 34 -31 39 0 5 -15 26 -32 47 -29 33 -88 131 -88 145 0 3 5 5 10 5 6 0 10
-4 10 -10z m1950 -5 c0 -8 -7 -15 -15 -15 -8 0 -15 7 -15 15 0 8 7 15 15 15 8
0 15 -7 15 -15z m-1534 -15 c8 0 14 -4 14 -10 0 -5 -5 -10 -11 -10 -15 0 -39
26 -31 34 4 4 8 2 10 -3 2 -6 10 -11 18 -11z m889 -90 c-3 -5 -10 -10 -16 -10
-5 0 -9 5 -9 10 0 6 7 10 16 10 8 0 12 -4 9 -10z m455 -80 c0 -5 -4 -10 -9
-10 -6 0 -13 5 -16 10 -3 6 1 10 9 10 9 0 16 -4 16 -10z m-1310 -30 c0 -5 -5
-10 -11 -10 -5 0 -7 5 -4 10 3 6 8 10 11 10 2 0 4 -4 4 -10z m816 -54 c16 -16
19 -46 5 -46 -5 0 -11 7 -15 15 -3 8 -12 15 -19 15 -8 0 -20 -7 -27 -15 -7 -9
-29 -15 -50 -15 -21 0 -40 -3 -43 -7 -2 -5 -2 -2 0 5 1 8 3 20 3 28 0 10 12
14 40 14 22 0 40 5 40 10 0 15 49 12 66 -4z m72 2 c-3 -7 -11 -13 -18 -13 -7
0 -15 6 -17 13 -3 7 4 12 17 12 13 0 20 -5 18 -12z m-683 -27 c3 -5 1 -12 -5
-16 -5 -3 -10 1 -10 9 0 18 6 21 15 7z m122 -37 c-3 -3 -12 -4 -19 -1 -8 3 -5
6 6 6 11 1 17 -2 13 -5z m1138 -209 c206 -4 443 -11 755 -20 288 -9 335 -13
318 -31 -14 -13 -160 -26 -233 -19 -44 4 -91 6 -105 6 -14 0 -79 -1 -145 -1
-66 0 -201 -1 -300 -2 -319 -3 -779 1 -826 7 -26 4 -58 17 -75 30 -49 41 -23
46 191 40 105 -3 294 -7 420 -10z m1152 -41 c-3 -3 -12 -4 -19 -1 -8 3 -5 6 6
6 11 1 17 -2 13 -5z m-2247 -335 c0 -11 8 -23 18 -26 25 -10 42 -29 42 -47 0
-18 8 -20 29 -7 9 6 12 18 7 37 -5 25 -5 27 5 9 7 -10 11 -43 10 -72 -2 -41 1
-53 12 -53 8 0 17 -7 21 -15 4 -12 2 -13 -12 -6 -34 18 -102 91 -102 109 0 10
-13 31 -30 47 -32 30 -40 58 -15 49 8 -4 15 -15 15 -25z"/>
<path d="M10020 11784 c0 -9 9 -27 20 -41 23 -30 28 -9 5 23 -8 12 -11 24 -8
28 3 3 1 6 -5 6 -7 0 -12 -7 -12 -16z"/>
<path d="M10248 11473 c7 -3 16 -2 19 1 4 3 -2 6 -13 5 -11 0 -14 -3 -6 -6z"/>
<path d="M10430 11360 c0 -22 5 -40 11 -40 6 0 25 -10 42 -22 21 -15 32 -18
35 -10 5 17 22 15 22 -4 0 -11 6 -14 20 -9 16 5 20 2 20 -14 0 -12 5 -21 10
-21 6 0 10 18 10 40 l0 40 -57 0 c-53 0 -59 2 -70 27 -7 15 -13 33 -13 40 0 7
-7 13 -15 13 -11 0 -15 -11 -15 -40z"/>
<path d="M10287 11370 c-3 -11 -1 -23 4 -26 5 -3 9 6 9 20 0 31 -6 34 -13 6z"/>
<path d="M10970 11341 c0 -12 5 -21 10 -21 6 0 10 6 10 14 0 8 -4 18 -10 21
-5 3 -10 -3 -10 -14z"/>
<path d="M10640 11304 c0 -9 5 -14 12 -12 18 6 21 28 4 28 -9 0 -16 -7 -16
-16z"/>
<path d="M10720 11265 c0 -16 6 -25 15 -25 8 0 15 9 15 19 0 10 -7 21 -15 25
-11 4 -15 -1 -15 -19z"/>
<path d="M11638 10863 c6 -2 18 -2 25 0 6 3 1 5 -13 5 -14 0 -19 -2 -12 -5z"/>
<path d="M11683 10825 c-10 -18 -23 -18 -65 0 -14 6 -18 2 -18 -17 0 -19 11
-31 49 -51 42 -23 49 -32 55 -66 4 -29 12 -40 28 -44 25 -7 25 -7 28 13 5 35
0 52 -15 46 -15 -6 -19 3 -15 41 0 12 -7 38 -18 59 -17 33 -20 35 -29 19z"/>
<path d="M11520 10775 c0 -8 5 -15 10 -15 6 0 10 7 10 15 0 8 -4 15 -10 15 -5
0 -10 -7 -10 -15z"/>
<path d="M11600 10720 c0 -13 5 -18 15 -14 8 4 15 10 15 14 0 4 -7 10 -15 14
-10 4 -15 -1 -15 -14z"/>
<path d="M11663 10693 c-19 -7 -17 -93 2 -93 11 0 15 12 15 50 0 28 -1 50 -2
49 -2 0 -9 -3 -15 -6z"/>
<path d="M11853 10627 c-6 -23 -11 -43 -9 -44 1 -1 11 0 23 3 18 5 20 10 13
41 -11 48 -14 48 -27 0z"/>
<path d="M11520 10635 c0 -17 2 -18 24 -9 18 7 12 24 -10 24 -8 0 -14 -7 -14
-15z"/>
<path d="M11731 10554 c0 -11 3 -14 6 -6 3 7 2 16 -1 19 -3 4 -6 -2 -5 -13z"/>
<path d="M12145 10510 c3 -5 8 -10 11 -10 2 0 4 5 4 10 0 6 -5 10 -11 10 -5 0
-7 -4 -4 -10z"/>
<path d="M12087 10453 c-4 -3 5 -17 19 -30 30 -28 39 -24 30 12 -6 24 -33 34
-49 18z"/>
<path d="M12465 10190 c3 -5 8 -10 11 -10 2 0 4 5 4 10 0 6 -5 10 -11 10 -5 0
-7 -4 -4 -10z"/>
<path d="M12465 10161 c-3 -5 -1 -12 5 -16 5 -3 10 1 10 9 0 18 -6 21 -15 7z"/>
<path d="M12576 9955 c25 -19 39 -19 54 0 11 13 7 15 -31 15 -40 0 -41 -1 -23
-15z"/>
<path d="M1651 9241 c-16 -10 -6 -31 15 -31 8 0 14 9 14 20 0 22 -7 25 -29 11z"/>
<path d="M10790 9495 c0 -15 4 -24 10 -20 6 3 10 12 10 20 0 8 -4 17 -10 20
-6 4 -10 -5 -10 -20z"/>
<path d="M12760 9510 c0 -5 5 -10 10 -10 6 0 10 5 10 10 0 6 -4 10 -10 10 -5
0 -10 -4 -10 -10z"/>
<path d="M12951 9203 c-1 -37 2 -43 19 -43 18 0 20 -4 14 -35 -7 -39 15 -85
41 -85 20 0 19 19 -6 75 -11 26 -18 56 -15 68 7 30 -12 61 -29 47 -10 -8 -14
-7 -18 2 -3 7 -6 -6 -6 -29z"/>
<path d="M12900 9071 c0 -5 6 -14 14 -20 11 -9 15 -8 20 5 9 23 8 24 -14 24
-11 0 -20 -4 -20 -9z"/>
<path d="M13054 8843 c11 -3 26 -11 34 -19 19 -20 32 -17 32 6 0 17 -6 20 -42
19 -24 -1 -34 -4 -24 -6z"/>
<path d="M13232 8809 c2 -7 10 -15 17 -17 8 -3 12 1 9 9 -2 7 -10 15 -17 17
-8 3 -12 -1 -9 -9z"/>
<path d="M2465 9201 c-3 -5 -1 -12 5 -16 5 -3 10 1 10 9 0 18 -6 21 -15 7z"/>
<path d="M1997 9194 c-13 -14 7 -34 34 -34 22 0 29 5 29 20 0 15 -7 20 -28 20
-16 0 -31 -3 -35 -6z"/>
<path d="M2130 9186 c0 -9 7 -16 16 -16 9 0 14 5 12 12 -6 18 -28 21 -28 4z"/>
<path d="M2471 9144 c0 -11 3 -14 6 -6 3 7 2 16 -1 19 -3 4 -6 -2 -5 -13z"/>
<path d="M2225 9090 c-4 -7 -2 -16 6 -21 18 -11 23 -4 11 17 -7 12 -11 13 -17
4z"/>
<path d="M1600 8839 c0 -5 5 -7 10 -4 6 3 10 8 10 11 0 2 -4 4 -10 4 -5 0 -10
-5 -10 -11z"/>
<path d="M1235 8560 c-3 -5 -1 -10 4 -10 6 0 11 5 11 10 0 6 -2 10 -4 10 -3 0
-8 -4 -11 -10z"/>
<path d="M1200 8139 c0 -5 5 -7 10 -4 6 3 10 8 10 11 0 2 -4 4 -10 4 -5 0 -10
-5 -10 -11z"/>
<path d="M12990 8240 c0 -5 5 -10 10 -10 6 0 10 5 10 10 0 6 -4 10 -10 10 -5
0 -10 -4 -10 -10z"/>
<path d="M12827 7549 c8 -8 16 -8 30 0 16 9 14 10 -11 11 -22 0 -27 -3 -19
-11z"/>
<path d="M1195 7679 c-10 -15 3 -25 16 -12 7 7 7 13 1 17 -6 3 -14 1 -17 -5z"/>
<path d="M580 6960 c0 -38 2 -40 30 -40 28 0 30 2 30 40 0 38 -2 40 -30 40
-28 0 -30 -2 -30 -40z"/>
<path d="M605 6440 c-3 -6 1 -7 9 -4 18 7 21 14 7 14 -6 0 -13 -4 -16 -10z"/>
<path d="M560 6104 c0 -8 5 -12 10 -9 6 3 10 10 10 16 0 5 -4 9 -10 9 -5 0
-10 -7 -10 -16z"/>
<path d="M703 5763 c-15 -5 -18 -43 -3 -43 5 0 7 -6 4 -14 -3 -8 0 -24 6 -36
9 -17 14 -19 23 -10 9 10 9 14 0 17 -22 8 -14 33 10 34 21 0 21 1 2 8 -11 4
-22 17 -25 28 -3 11 -11 18 -17 16z"/>
<path d="M650 5696 c0 -14 4 -27 9 -30 13 -9 32 19 25 38 -10 25 -34 19 -34
-8z"/>
<path d="M780 5650 c0 -5 5 -10 10 -10 6 0 10 5 10 10 0 6 -4 10 -10 10 -5 0
-10 -4 -10 -10z"/>
<path d="M998 5393 c7 -3 16 -2 19 1 4 3 -2 6 -13 5 -11 0 -14 -3 -6 -6z"/>
<path d="M935 5200 c4 -6 11 -8 16 -5 14 9 11 15 -7 15 -8 0 -12 -5 -9 -10z"/>
<path d="M961 5158 c0 -16 -5 -28 -11 -28 -5 0 -10 -7 -10 -15 0 -8 4 -15 10
-15 12 0 23 43 17 67 -3 12 -5 9 -6 -9z"/>
<path d="M1480 5010 c0 -5 5 -10 10 -10 6 0 10 5 10 10 0 6 -4 10 -10 10 -5 0
-10 -4 -10 -10z"/>
<path d="M1455 4788 c-14 -91 -13 -117 2 -111 7 3 13 10 12 17 -1 6 -1 35 0
65 1 43 4 52 16 47 10 -4 15 1 15 14 0 13 -7 20 -19 20 -15 0 -20 -11 -26 -52z"/>
<path d="M1057 4693 c-3 -3 -3 -11 0 -19 6 -15 29 -19 37 -6 6 9 -29 33 -37
25z"/>
<path d="M1477 4673 c-4 -3 -7 -18 -7 -33 0 -36 10 -44 27 -20 12 17 12 23 0
40 -8 11 -17 17 -20 13z"/>
<path d="M1020 4560 c0 -5 5 -10 10 -10 6 0 10 5 10 10 0 6 -4 10 -10 10 -5 0
-10 -4 -10 -10z"/>
<path d="M1440 4110 c0 -5 9 -10 19 -10 11 0 23 5 26 10 4 6 -5 10 -19 10 -14
0 -26 -4 -26 -10z"/>
<path d="M1410 4090 c-11 -7 -12 -12 -4 -20 8 -8 14 -7 23 4 14 17 1 28 -19
16z"/>
<path d="M1396 4008 c-7 -36 -3 -43 18 -35 9 4 13 13 10 22 -4 8 -1 22 6 30
10 12 9 15 -8 15 -14 0 -21 -9 -26 -32z"/>
<path d="M1631 4026 c-9 -10 -9 -16 -1 -21 6 -4 8 -15 5 -26 -4 -13 -2 -19 9
-19 12 0 16 10 16 40 0 42 -9 50 -29 26z"/>
<path d="M1747 4033 c-14 -14 -6 -23 21 -22 16 0 21 3 12 6 -8 3 -18 10 -21
15 -3 4 -8 5 -12 1z"/>
<path d="M1580 3950 c0 -5 5 -10 10 -10 6 0 10 5 10 10 0 6 -4 10 -10 10 -5 0
-10 -4 -10 -10z"/>
<path d="M1760 3789 c0 -5 5 -7 10 -4 6 3 10 8 10 11 0 2 -4 4 -10 4 -5 0 -10
-5 -10 -11z"/>
<path d="M2000 3755 c0 -8 5 -15 10 -15 6 0 10 7 10 15 0 8 -4 15 -10 15 -5 0
-10 -7 -10 -15z"/>
<path d="M1760 3704 c0 -14 3 -14 15 -4 8 7 15 14 15 16 0 2 -7 4 -15 4 -8 0
-15 -7 -15 -16z"/>
<path d="M1986 3441 c-4 -7 -5 -15 -2 -18 9 -9 19 4 14 18 -4 11 -6 11 -12 0z"/>
<path d="M2390 3309 c0 -5 5 -7 10 -4 6 3 10 8 10 11 0 2 -4 4 -10 4 -5 0 -10
-5 -10 -11z"/>
<path d="M12921 3434 c0 -11 3 -14 6 -6 3 7 2 16 -1 19 -3 4 -6 -2 -5 -13z"/>
<path d="M12910 3120 c0 -19 3 -21 12 -12 9 9 9 15 0 24 -9 9 -12 7 -12 -12z"/>
<path d="M1506 3087 c-18 -13 -18 -14 9 -21 20 -5 33 -2 44 8 9 10 11 16 4 16
-6 0 -17 2 -25 5 -7 3 -22 -1 -32 -8z"/>
<path d="M1735 3083 c11 -3 24 -10 28 -17 6 -7 7 -6 4 4 -2 8 -14 16 -28 17
-19 1 -20 1 -4 -4z"/>
<path d="M2557 2943 c-11 -10 -8 -20 9 -37 20 -20 44 -21 44 -1 0 8 -4 15 -10
15 -5 0 -10 7 -10 15 0 15 -21 21 -33 8z"/>
<path d="M2640 2934 c0 -14 3 -14 15 -4 8 7 15 14 15 16 0 2 -7 4 -15 4 -8 0
-15 -7 -15 -16z"/>
<path d="M2430 2900 c0 -11 7 -20 15 -20 8 0 15 9 15 20 0 11 -7 20 -15 20 -8
0 -15 -9 -15 -20z"/>
<path d="M2745 2791 c-7 -12 12 -24 25 -16 11 7 4 25 -10 25 -5 0 -11 -4 -15
-9z"/>
<path d="M2605 2776 c-17 -12 -17 -13 8 -18 21 -4 27 -1 27 13 0 22 -10 24
-35 5z"/>
<path d="M2705 2661 c-7 -13 17 -24 40 -19 9 1 16 8 16 13 0 14 -48 19 -56 6z"/>
<path d="M2640 2625 c0 -16 6 -25 16 -25 11 0 14 5 10 16 -3 9 -6 20 -6 25 0
5 -4 9 -10 9 -5 0 -10 -11 -10 -25z"/>
<path d="M2916 2630 c17 -16 71 -21 77 -6 4 10 -6 14 -40 14 -28 1 -43 -2 -37
-8z"/>
<path d="M2755 2610 c-3 -5 1 -10 10 -10 9 0 13 5 10 10 -3 6 -8 10 -10 10 -2
0 -7 -4 -10 -10z"/>
<path d="M3030 2611 c0 -5 5 -13 10 -16 6 -3 10 -2 10 4 0 5 -4 13 -10 16 -5
3 -10 2 -10 -4z"/>
<path d="M2750 2560 c0 -11 7 -20 15 -20 8 0 15 9 15 20 0 11 -7 20 -15 20 -8
0 -15 -9 -15 -20z"/>
<path d="M3655 2540 c4 -6 11 -8 16 -5 14 9 11 15 -7 15 -8 0 -12 -5 -9 -10z"/>
<path d="M3590 2531 c0 -6 5 -13 10 -16 6 -3 10 1 10 9 0 9 -4 16 -10 16 -5 0
-10 -4 -10 -9z"/>
<path d="M3625 2479 c-8 -11 22 -38 43 -39 6 0 12 5 12 10 0 6 -7 10 -15 10
-8 0 -15 7 -15 15 0 17 -16 20 -25 4z"/>
<path d="M3060 2472 c0 -5 7 -13 16 -16 10 -4 14 -1 12 6 -5 15 -28 23 -28 10z"/>
<path d="M3760 2440 c0 -5 5 -10 11 -10 5 0 7 5 4 10 -3 6 -8 10 -11 10 -2 0
-4 -4 -4 -10z"/>
<path d="M3090 2427 c0 -7 7 -23 16 -35 8 -12 12 -26 9 -32 -3 -6 1 -7 9 -4
10 4 20 -3 27 -20 15 -32 34 -34 25 -3 -3 12 -6 30 -6 40 0 14 -5 16 -25 11
-23 -6 -25 -3 -25 25 0 21 -5 31 -15 31 -8 0 -15 -6 -15 -13z"/>
<path d="M3040 2408 c0 -9 -3 -23 -6 -32 -4 -12 0 -16 15 -16 25 0 27 18 6 46
-12 16 -14 17 -15 2z"/>
<path d="M3330 2338 c0 -19 2 -20 10 -8 13 19 13 30 0 30 -5 0 -10 -10 -10
-22z"/>
<path d="M3720 2346 c0 -24 17 -28 23 -6 3 13 0 20 -9 20 -8 0 -14 -6 -14 -14z"/>
<path d="M3800 2351 c0 -5 5 -13 10 -16 6 -3 10 -2 10 4 0 5 -4 13 -10 16 -5
3 -10 2 -10 -4z"/>
<path d="M3040 2335 c0 -8 5 -15 10 -15 6 0 10 7 10 15 0 8 -4 15 -10 15 -5 0
-10 -7 -10 -15z"/>
<path d="M3530 2316 c0 -8 5 -18 10 -21 6 -3 10 3 10 14 0 12 -4 21 -10 21 -5
0 -10 -6 -10 -14z"/>
<path d="M3492 2308 c6 -18 28 -21 28 -4 0 9 -7 16 -16 16 -9 0 -14 -5 -12
-12z"/>
<path d="M3110 2295 c0 -8 7 -15 15 -15 8 0 15 4 15 9 0 5 -7 11 -15 15 -9 3
-15 0 -15 -9z"/>
<path d="M3371 2266 c-9 -11 -9 -16 0 -22 7 -4 18 1 25 11 7 10 20 15 29 12 8
-4 15 -2 15 3 0 15 -56 12 -69 -4z"/>
<path d="M12390 2350 c0 -5 4 -10 9 -10 6 0 13 5 16 10 3 6 -1 10 -9 10 -9 0
-16 -4 -16 -10z"/>
<path d="M12537 2260 c3 -11 9 -20 14 -20 5 0 9 9 9 20 0 11 -6 20 -14 20 -9
0 -12 -7 -9 -20z"/>
<path d="M12411 2241 c-8 -5 -9 -11 -3 -15 14 -8 43 4 36 15 -7 11 -15 11 -33
0z"/>
<path d="M12275 2200 c-8 -12 20 -24 35 -15 6 3 8 11 5 16 -8 12 -32 12 -40
-1z"/>
<path d="M12236 2135 c-4 -10 1 -15 16 -15 17 0 18 2 8 15 -7 8 -14 15 -15 15
-2 0 -5 -7 -9 -15z"/>
<path d="M12330 2123 c8 -2 29 -11 47 -19 39 -18 57 -18 72 0 9 11 2 14 -35
20 -54 7 -106 7 -84 -1z"/>
<path d="M12320 2055 c0 -10 10 -15 33 -15 30 1 31 1 13 15 -25 19 -46 19 -46
0z"/>
<path d="M2681 1921 c-20 -13 5 -24 37 -16 20 5 23 8 11 16 -18 11 -30 11 -48
0z"/>
<path d="M9600 1640 c0 -5 4 -10 9 -10 6 0 13 5 16 10 3 6 -1 10 -9 10 -9 0
-16 -4 -16 -10z"/>
<path d="M11600 1640 c0 -5 7 -7 15 -4 8 4 15 8 15 10 0 2 -7 4 -15 4 -8 0
-15 -4 -15 -10z"/>
<path d="M11737 1639 c8 -8 16 -8 30 0 16 9 14 10 -11 11 -22 0 -27 -3 -19
-11z"/>
<path d="M9472 1619 c-10 -16 -10 -24 1 -39 13 -18 13 -18 25 1 10 16 10 24
-1 39 -13 18 -13 18 -25 -1z"/>
<path d="M9693 1563 c9 -2 25 -2 35 0 9 3 1 5 -18 5 -19 0 -27 -2 -17 -5z"/>
<path d="M11768 1563 c7 -3 16 -2 19 1 4 3 -2 6 -13 5 -11 0 -14 -3 -6 -6z"/>
<path d="M9677 1506 c-4 -10 -5 -21 -2 -24 9 -9 17 6 13 25 -3 17 -4 17 -11
-1z"/>
<path d="M11752 1500 c0 -14 2 -19 5 -12 2 6 2 18 0 25 -3 6 -5 1 -5 -13z"/>
<path d="M11600 1468 c0 -17 2 -18 15 -8 8 7 15 14 15 15 0 2 -7 5 -15 9 -10
4 -15 -1 -15 -16z"/>
<path d="M9870 1440 c0 -5 5 -10 10 -10 6 0 10 5 10 10 0 6 -4 10 -10 10 -5 0
-10 -4 -10 -10z"/>
<path d="M11120 1313 c1 -27 1 -27 15 -9 19 25 19 36 0 36 -10 0 -15 -10 -15
-27z"/>
<path d="M9920 1284 c0 -8 5 -12 10 -9 6 4 8 11 5 16 -9 14 -15 11 -15 -7z"/>
<path d="M10721 1254 c0 -11 3 -14 6 -6 3 7 2 16 -1 19 -3 4 -6 -2 -5 -13z"/>
<path d="M10140 1246 c0 -8 5 -18 10 -21 6 -3 10 3 10 14 0 12 -4 21 -10 21
-5 0 -10 -6 -10 -14z"/>
<path d="M9978 1243 c7 -3 16 -2 19 1 4 3 -2 6 -13 5 -11 0 -14 -3 -6 -6z"/>
<path d="M10110 1180 c-13 -8 -12 -11 5 -24 36 -28 70 -12 39 18 -18 18 -23
19 -44 6z"/>
<path d="M10395 1176 c-19 -15 -18 -15 18 -16 27 0 37 4 35 13 -7 18 -31 20
-53 3z"/>
<path d="M10287 1103 c-14 -13 -6 -23 18 -23 18 0 23 4 19 15 -6 16 -26 20
-37 8z"/>
<path d="M10190 1086 c0 -2 7 -7 16 -10 8 -3 12 -2 9 4 -6 10 -25 14 -25 6z"/>
<path d="M10398 1083 c6 -2 18 -2 25 0 6 3 1 5 -13 5 -14 0 -19 -2 -12 -5z"/>
<path d="M10345 1041 c-7 -12 12 -24 25 -16 11 7 4 25 -10 25 -5 0 -11 -4 -15
-9z"/>
<path d="M10197 1033 c-12 -12 -7 -33 8 -33 17 0 19 9 7 28 -5 7 -11 9 -15 5z"/>
<path d="M10320 990 c0 -5 18 -10 40 -10 22 0 40 5 40 10 0 6 -18 10 -40 10
-22 0 -40 -4 -40 -10z"/>
<path d="M12176 4513 c-14 -14 -5 -67 15 -84 18 -16 49 -17 49 -1 0 37 -48
101 -64 85z"/>
<path d="M12070 4490 c-25 -25 -25 -48 -1 -77 21 -25 55 -30 67 -11 14 22 12
73 -4 91 -20 22 -37 22 -62 -3z"/>
<path d="M10846 4445 c-9 -26 -7 -78 5 -95 9 -13 10 -13 6 2 -3 9 -1 33 4 53
11 39 -2 73 -15 40z"/>
<path d="M9945 600 c-3 -6 1 -7 9 -4 18 7 21 14 7 14 -6 0 -13 -4 -16 -10z"/>
</g>
</svg>
